<svg width="10" height="12" viewBox="0 0 10 12" fill="none" xmlns="http://www.w3.org/2000/svg">
<path d="M2.33333 10.5H7V8.75C7 8.10833 6.77153 7.55903 6.31458 7.10208C5.85764 6.64514 5.30833 6.41667 4.66667 6.41667C4.025 6.41667 3.47569 6.64514 3.01875 7.10208C2.56181 7.55903 2.33333 8.10833 2.33333 8.75V10.5ZM4.66667 5.25C5.30833 5.25 5.85764 5.02153 6.31458 4.56458C6.77153 4.10764 7 3.55833 7 2.91667V1.16667H2.33333V2.91667C2.33333 3.55833 2.56181 4.10764 3.01875 4.56458C3.47569 5.02153 4.025 5.25 4.66667 5.25ZM0 11.6667V10.5H1.16667V8.75C1.16667 8.15694 1.30521 7.60035 1.58229 7.08021C1.85938 6.56007 2.24583 6.14444 2.74167 5.83333C2.24583 5.52222 1.85938 5.1066 1.58229 4.58646C1.30521 4.06632 1.16667 3.50972 1.16667 2.91667V1.16667H0V0H9.33333V1.16667H8.16667V2.91667C8.16667 3.50972 8.02812 4.06632 7.75104 4.58646C7.47396 5.1066 7.0875 5.52222 6.59167 5.83333C7.0875 6.14444 7.47396 6.56007 7.75104 7.08021C8.02812 7.60035 8.16667 8.15694 8.16667 8.75V10.5H9.33333V11.6667H0Z" fill="#A16207"/>
</svg>
