<svg width="20" height="20" viewBox="0 0 20 20" fill="none" xmlns="http://www.w3.org/2000/svg">
<path d="M2 16V11C2 11.4167 2 11.7042 2 11.8625C2 12.0208 2 12.0417 2 11.925V16ZM0 11L2.1 5C2.2 4.7 2.37917 4.45833 2.6375 4.275C2.89583 4.09167 3.18333 4 3.5 4H8.075C8.025 4.33333 8 4.66667 8 5C8 5.33333 8.025 5.66667 8.075 6H3.85L2.8 9H9.275C9.55833 9.4 9.875 9.77083 10.225 10.1125C10.575 10.4542 10.9667 10.75 11.4 11H2V16H16V11.925C16.35 11.875 16.6917 11.8 17.025 11.7C17.3583 11.6 17.6833 11.475 18 11.325V19C18 19.2833 17.9042 19.5208 17.7125 19.7125C17.5208 19.9042 17.2833 20 17 20H16C15.7167 20 15.4792 19.9042 15.2875 19.7125C15.0958 19.5208 15 19.2833 15 19V18H3V19C3 19.2833 2.90417 19.5208 2.7125 19.7125C2.52083 19.9042 2.28333 20 2 20H1C0.716667 20 0.479167 19.9042 0.2875 19.7125C0.0958333 19.5208 0 19.2833 0 19V11ZM13.5 15C13.9167 15 14.2708 14.8542 14.5625 14.5625C14.8542 14.2708 15 13.9167 15 13.5C15 13.0833 14.8542 12.7292 14.5625 12.4375C14.2708 12.1458 13.9167 12 13.5 12C13.0833 12 12.7292 12.1458 12.4375 12.4375C12.1458 12.7292 12 13.0833 12 13.5C12 13.9167 12.1458 14.2708 12.4375 14.5625C12.7292 14.8542 13.0833 15 13.5 15ZM4.5 15C4.91667 15 5.27083 14.8542 5.5625 14.5625C5.85417 14.2708 6 13.9167 6 13.5C6 13.0833 5.85417 12.7292 5.5625 12.4375C5.27083 12.1458 4.91667 12 4.5 12C4.08333 12 3.72917 12.1458 3.4375 12.4375C3.14583 12.7292 3 13.0833 3 13.5C3 13.9167 3.14583 14.2708 3.4375 14.5625C3.72917 14.8542 4.08333 15 4.5 15ZM15 10C13.6167 10 12.4375 9.5125 11.4625 8.5375C10.4875 7.5625 10 6.38333 10 5C10 3.63333 10.4833 2.45833 11.45 1.475C12.4167 0.491667 13.6 0 15 0C16.3833 0 17.5625 0.4875 18.5375 1.4625C19.5125 2.4375 20 3.61667 20 5C20 6.38333 19.5125 7.5625 18.5375 8.5375C17.5625 9.5125 16.3833 10 15 10ZM14.5 6H15.5V2H14.5V6ZM15 8C15.1333 8 15.25 7.95 15.35 7.85C15.45 7.75 15.5 7.63333 15.5 7.5C15.5 7.36667 15.45 7.25 15.35 7.15C15.25 7.05 15.1333 7 15 7C14.8667 7 14.75 7.05 14.65 7.15C14.55 7.25 14.5 7.36667 14.5 7.5C14.5 7.63333 14.55 7.75 14.65 7.85C14.75 7.95 14.8667 8 15 8Z" fill="#047285"/>
</svg>
