<svg width="24" height="18" viewBox="0 0 24 18" fill="none" xmlns="http://www.w3.org/2000/svg">
<path d="M17.25 9H18.75V7.3L20.225 8.15L20.975 6.85L19.5 6L20.975 5.15L20.225 3.85L18.75 4.7V3H17.25V4.7L15.775 3.85L15.025 5.15L16.5 6L15.025 6.85L15.775 8.15L17.25 7.3V9V9M2 18C1.45 18 0.979167 17.8042 0.5875 17.4125C0.195833 17.0208 0 16.55 0 16V2C0 1.45 0.195833 0.979167 0.5875 0.5875C0.979167 0.195833 1.45 0 2 0H22C22.55 0 23.0208 0.195833 23.4125 0.5875C23.8042 0.979167 24 1.45 24 2V16C24 16.55 23.8042 17.0208 23.4125 17.4125C23.0208 17.8042 22.55 18 22 18H2V18M9 11C9.83333 11 10.5417 10.7083 11.125 10.125C11.7083 9.54167 12 8.83333 12 8C12 7.16667 11.7083 6.45833 11.125 5.875C10.5417 5.29167 9.83333 5 9 5C8.16667 5 7.45833 5.29167 6.875 5.875C6.29167 6.45833 6 7.16667 6 8C6 8.83333 6.29167 9.54167 6.875 10.125C7.45833 10.7083 8.16667 11 9 11V11M2.1 16H15.9C15.2 14.75 14.2333 13.7708 13 13.0625C11.7667 12.3542 10.4333 12 9 12C7.56667 12 6.23333 12.3542 5 13.0625C3.76667 13.7708 2.8 14.75 2.1 16V16" fill="#B6171E"/>
</svg>
