<svg width="185" height="46" viewBox="0 0 185 46" fill="none" xmlns="http://www.w3.org/2000/svg">
<path d="M6.53099 0.361191C5.82458 0.57687 4.89031 0.965099 4.45736 1.22392C3.18127 1.95724 1.58617 3.7474 0.811411 5.30031L0.0822218 6.74538L0.0138603 22.4902C-0.031714 33.4468 0.0366474 38.5369 0.196158 39.184C0.902559 41.88 2.86225 44.1878 5.41442 45.3309L6.91837 45.9995H24.3505H41.7827L43.3778 45.2662C45.3831 44.3172 46.8415 42.9368 47.8441 41.0388L48.6189 39.5291V23.0294V6.5297L47.8897 5.08463C46.9554 3.18663 45.3147 1.63371 43.3095 0.749416L41.7827 0.0592346L24.8063 0.016098C8.92364 -0.0270386 7.73871 -0.00547028 6.53099 0.361191ZM26.9483 9.44141C29.6827 10.7571 32.2121 11.5982 35.9036 12.461C38.3191 13.0002 38.1596 12.806 38.3874 16.0413C38.6609 20.1824 37.795 24.3882 35.8581 28.0979C33.7388 32.1527 31.0272 34.7625 26.7204 36.8762L24.4417 37.9977L22.9605 37.3291C16.8764 34.6546 12.9114 30.039 11.134 23.6764C10.5871 21.6706 10.2453 16.3432 10.5415 14.1217L10.701 12.9355L12.4556 12.5688C15.4408 11.9433 19.588 10.563 21.9579 9.35513C23.2112 8.70809 24.2594 8.19045 24.2594 8.16888C24.2822 8.14731 25.4899 8.72966 26.9483 9.44141Z" fill="#FF0000"/>
<path d="M21.9579 11.6197C19.6108 12.6981 15.5547 14.0569 13.8912 14.3157C12.524 14.5314 12.4101 14.8549 12.5696 18.047C12.7063 21.0881 13.1621 23.4822 14.0052 25.5959C15.6003 29.6292 19.0411 33.2311 23.1428 35.1938L24.3505 35.7545L25.9229 35.0212C28.1104 33.9644 30.6626 31.9801 32.0754 30.2331C34.7643 26.8469 35.9492 23.3312 36.1315 18.0686L36.2682 14.7255L33.2831 13.9275C31.6424 13.4961 29.0447 12.5903 27.4952 11.9217C25.9456 11.253 24.6012 10.6707 24.4645 10.6276C24.3505 10.5844 23.2112 11.0374 21.9579 11.6197ZM26.9027 13.3236C28.2016 13.9059 30.4803 14.704 31.9615 15.0922L34.6503 15.8039L34.5364 18.6078C34.2402 25.4881 31.3234 30.3193 25.5355 33.5546L24.5101 34.1153L23.0061 33.382C21.9807 32.886 20.8413 32.0448 19.4285 30.7076C17.6511 29.0252 17.1954 28.4429 16.3067 26.6959C14.8027 23.741 13.9824 20.0744 14.1419 17.1196L14.2103 15.8255L16.4434 15.2216C19.1551 14.4883 21.8667 13.4961 23.0973 12.806C23.5986 12.5256 24.1227 12.2667 24.2594 12.2667C24.3961 12.2452 25.5811 12.7197 26.9027 13.3236Z" fill="#FF0000"/>
<path d="M94.3527 10.3042C88.5875 11.0591 84.1896 14.7041 82.7996 19.902C82.3666 21.5412 82.3666 24.5176 82.7996 26.1568C83.6655 29.392 86.2176 32.692 88.9521 34.1155C93.2361 36.3586 98.5455 36.5096 102.966 34.5253C106.248 33.0371 109.005 29.8018 109.939 26.2646C110.737 23.3529 110.304 19.8158 108.845 16.9903C107.843 15.0707 105.177 12.5473 103.194 11.6414C100.574 10.4336 97.2466 9.93751 94.3527 10.3042ZM97.7252 15.4805C100.961 16.0629 103.171 18.1981 103.878 21.4118C104.447 24.0431 103.673 26.6313 101.713 28.6156C100.255 30.0822 98.7962 30.6646 96.4719 30.6646C94.854 30.6861 94.4666 30.5999 93.1222 29.9744C90.7067 28.8528 89.3395 27.0411 88.8382 24.2804C88.5191 22.6196 88.9521 20.2687 89.8408 18.8236C90.8662 17.206 92.8715 15.8688 94.8312 15.4805C96.1756 15.2433 96.3807 15.2433 97.7252 15.4805Z" fill="#FF0000"/>
<path d="M147.834 10.304C142.228 10.951 137.717 14.6608 136.349 19.6862C135.894 21.3469 135.894 24.9273 136.349 26.588C137.58 30.9879 141.021 34.2232 145.829 35.4741C147.925 36.0133 152.164 35.9702 154.534 35.3663C156.653 34.8055 158.658 33.8349 160.048 32.6918L161.073 31.8291V26.5664V21.3038H155.263H149.452V23.5685V25.8331H151.708C152.938 25.8331 154.283 25.8978 154.67 25.9625C155.377 26.1135 155.399 26.1351 155.286 27.1056C155.24 27.6448 155.172 28.4213 155.172 28.8095C155.149 29.4566 155.035 29.5644 153.85 30.1036C152.688 30.5997 152.232 30.686 150.25 30.686C148.108 30.686 147.857 30.6428 146.421 29.9742C143.664 28.6801 142.274 26.3076 142.274 22.9214C142.274 21.2822 142.388 20.7862 142.889 19.7724C144.849 15.7392 149.498 14.2726 153.964 16.2784C154.625 16.5588 155.468 17.0549 155.855 17.3568C156.22 17.6588 156.562 17.8744 156.584 17.8313C156.63 17.7882 157.45 16.9039 158.407 15.847C159.364 14.8118 160.162 13.8843 160.162 13.7765C160.162 13.4745 158.066 12.0726 156.721 11.4903C154.215 10.4118 150.796 9.95891 147.834 10.304Z" fill="#FF0000"/>
<path d="M66.1878 10.5414C63.8635 11.059 61.6987 12.612 60.6277 14.51C60.0808 15.4805 60.0124 15.8041 60.0124 17.853C60.0124 20.4628 60.3543 21.3039 61.9494 22.6627C63.1571 23.7196 64.6838 24.3235 68.626 25.4019C72.1352 26.3509 72.9328 26.7176 73.6392 27.6019C74.0265 28.0979 74.0721 28.3352 73.8898 29.0038C73.1834 31.743 67.6006 31.5704 63.6356 28.7234C63.0887 28.3136 62.5418 27.9685 62.4507 27.9254C62.3367 27.9038 61.4708 28.745 60.5138 29.8234L58.7592 31.7645L59.6023 32.4331C63.2254 35.388 68.8767 36.5958 73.7987 35.4958C77.5586 34.6547 79.7233 32.2606 79.9056 28.7665C80.0651 25.8117 79.1992 24.0431 76.8749 22.5549C75.6444 21.7784 74.3 21.3255 68.8994 19.8157C66.6891 19.2118 65.9371 18.5864 65.9371 17.4217C65.9371 15.6531 68.0107 14.7041 70.7908 15.2433C72.0896 15.4805 74.2316 16.3648 75.5305 17.1844L76.2369 17.6373L77.7864 15.5668L79.336 13.4963L78.6751 12.9786C77.6269 12.1806 74.9608 10.9943 73.3429 10.6492C71.725 10.2826 67.6461 10.2179 66.1878 10.5414Z" fill="#FF0000"/>
<path d="M119.1 10.714C116.547 11.512 114.929 12.7198 113.858 14.6825C113.494 15.3511 113.334 16.0844 113.266 17.5511C113.152 19.9452 113.653 21.2608 115.203 22.6196C116.502 23.7412 118.006 24.3666 121.743 25.3372C126.118 26.4588 127.348 27.1921 127.348 28.745C127.348 29.6077 126.346 30.5136 125.047 30.794C122.768 31.3116 120.011 30.643 117.277 28.9391L115.659 27.9038L114.542 29.0469C113.95 29.6724 113.175 30.5136 112.833 30.9234L112.241 31.6783L112.901 32.3253C115.34 34.7409 120.991 36.337 125.229 35.7978C128.602 35.3664 130.584 34.4174 132.02 32.5626C133.022 31.2469 133.387 29.9959 133.364 27.947C133.319 24.0431 131.063 22.102 124.568 20.4844C121.059 19.6001 119.852 19.0609 119.464 18.1766C118.872 16.8393 119.669 15.6531 121.447 15.2648C123.361 14.8335 125.822 15.4158 128.26 16.8609C129.012 17.3138 129.604 17.5295 129.741 17.4217C129.878 17.3138 130.584 16.408 131.313 15.3943C132.59 13.6257 132.635 13.5178 132.271 13.1296C131.769 12.612 129.536 11.4904 127.873 10.9081C125.913 10.261 120.923 10.1316 119.1 10.714Z" fill="#FF0000"/>
<path d="M171.054 16.5374C169.163 17.1197 167.887 17.8962 166.588 19.255C161.848 24.1726 163.398 32.1744 169.641 34.9351C174.541 37.1135 180.511 35.6037 183.405 31.4842C184.408 30.0391 185 28.0333 185 26.0706C185 21.9726 182.972 18.8452 179.166 17.0766C177.526 16.3002 177.321 16.257 174.905 16.1923C172.877 16.1492 172.08 16.2139 171.054 16.5374ZM176.614 21.3255C177.982 21.9726 179.303 24.3235 179.303 26.049C179.303 27.0843 178.62 28.8529 177.89 29.6293C176.911 30.6862 175.999 31.0744 174.518 31.0744C171.556 31.0744 169.619 28.9823 169.641 25.8333C169.687 21.9295 173.173 19.6864 176.614 21.3255Z" fill="#FF0000"/>
</svg>
