<?xml version="1.0" standalone="no"?>
<!DOCTYPE svg PUBLIC "-//W3C//DTD SVG 20010904//EN"
 "http://www.w3.org/TR/2001/REC-SVG-20010904/DTD/svg10.dtd">
<svg version="1.0" xmlns="http://www.w3.org/2000/svg"
 width="688.000000pt" height="535.000000pt" viewBox="0 0 688.000000 535.000000"
 preserveAspectRatio="xMidYMid meet">

<g transform="translate(0.000000,535.000000) scale(0.100000,-0.100000)"
fill="#ff0000" stroke="none">
<path d="M1860 5120 c-138 -82 -366 -218 -1110 -660 -528 -314 -588 -350 -599
-364 -9 -10 -9 -294 -1 -1077 5 -585 12 -1075 16 -1089 4 -19 25 -37 77 -66
40 -23 133 -76 207 -119 337 -194 539 -310 580 -333 25 -14 106 -60 180 -102
211 -121 506 -288 605 -343 50 -27 106 -60 125 -72 69 -42 108 -56 127 -46 10
5 169 99 353 209 410 243 379 225 528 314 68 40 133 78 145 85 12 7 198 117
412 246 l390 233 0 160 0 159 -69 3 -69 3 6 -120 5 -120 -47 -29 c-25 -16
-197 -119 -381 -229 -184 -109 -490 -292 -680 -405 -381 -227 -554 -329 -586
-346 -18 -9 -34 -5 -100 27 -71 34 -528 291 -864 486 -69 39 -199 114 -290
165 -91 51 -185 105 -210 120 -25 15 -90 53 -145 83 -55 31 -116 69 -135 86
l-35 29 -6 398 c-4 220 -7 674 -8 1009 l0 610 235 140 c130 77 241 142 247
144 5 2 52 30 104 62 52 33 96 59 98 59 2 0 40 23 84 50 44 28 83 50 87 50 3
0 25 14 49 30 24 17 46 30 49 30 3 0 48 27 101 60 53 33 98 60 100 60 1 0 77
44 167 98 89 55 218 131 284 171 l122 71 83 -47 c46 -26 170 -96 274 -156 215
-124 913 -524 978 -560 193 -108 385 -223 400 -239 9 -11 17 -33 17 -49 l0
-29 65 0 66 0 -3 81 -3 81 -245 140 c-135 77 -348 200 -475 273 -126 73 -247
142 -267 154 -21 12 -53 29 -70 40 -141 80 -309 177 -338 193 -19 11 -48 27
-65 37 -65 39 -367 212 -393 225 -26 13 -33 10 -172 -74z"/>
<path d="M1585 4715 c-225 -135 -417 -249 -425 -254 -67 -41 -231 -139 -255
-152 -66 -37 -521 -308 -537 -321 -16 -12 -17 -75 -11 -983 l6 -970 430 -245
c237 -135 453 -258 481 -274 28 -16 80 -46 116 -66 104 -59 359 -204 430 -245
91 -52 217 -115 231 -115 14 0 26 7 694 405 270 161 564 336 655 390 91 54
193 117 228 139 l63 41 -3 95 c-3 87 -5 95 -23 95 -18 0 -20 -8 -25 -89 l-5
-89 -100 -60 c-149 -89 -323 -192 -695 -412 -184 -109 -384 -228 -445 -265
-60 -36 -165 -99 -232 -139 l-121 -73 -64 37 c-35 21 -76 46 -93 55 -48 28
-576 330 -620 354 -22 13 -89 51 -150 86 -60 34 -126 72 -145 82 -595 338
-544 304 -551 364 -7 59 -18 852 -20 1433 -1 337 1 415 12 423 8 5 46 27 84
50 39 23 203 120 365 216 312 186 345 205 492 291 51 30 190 113 308 184 118
71 231 138 250 149 19 11 50 29 68 40 l32 20 228 -130 c125 -71 245 -140 267
-152 22 -12 99 -56 170 -98 72 -41 238 -137 370 -212 334 -192 556 -320 580
-336 26 -18 55 -18 55 1 0 23 -23 38 -555 343 -110 63 -220 126 -245 139 -25
14 -72 42 -105 61 -155 90 -513 296 -540 310 -16 8 -37 20 -45 27 -26 21 -168
95 -182 95 -7 0 -197 -110 -423 -245z"/>
<path d="M2042 3798 c-14 -14 -16 -116 -2 -138 14 -22 19 -10 26 57 7 66 -3
102 -24 81z"/>
<path d="M1805 3728 c13 -59 31 -102 48 -112 34 -22 29 7 -20 112 -20 42 -37
42 -28 0z"/>
<path d="M2283 3749 c-6 -8 -15 -27 -18 -42 -4 -15 -11 -30 -16 -33 -5 -3 -9
-22 -9 -42 l0 -37 20 25 c34 45 57 169 23 129z"/>
<path d="M3675 3719 c-54 -20 -93 -58 -122 -116 -25 -52 -28 -68 -28 -163 0
-143 12 -166 173 -334 70 -73 136 -148 145 -168 11 -23 17 -61 17 -101 0 -59
-3 -68 -26 -86 -34 -27 -40 -26 -69 5 -23 25 -25 35 -25 119 l0 92 -61 7 c-34
3 -84 6 -112 6 l-50 0 5 -135 c3 -84 9 -140 16 -147 7 -7 12 -19 12 -28 0 -25
59 -89 102 -111 29 -15 68 -22 134 -26 141 -9 210 25 266 128 21 41 23 56 23
204 l0 160 -32 55 c-18 30 -82 105 -143 165 -62 61 -123 127 -136 147 -42 65
-24 138 34 138 35 0 52 -27 52 -81 l0 -49 116 0 117 0 -6 75 c-10 111 -54 187
-137 234 -32 18 -223 25 -265 10z"/>
<path d="M4331 3718 c-43 -15 -103 -73 -130 -126 -20 -40 -21 -55 -21 -459 l0
-418 30 -52 c53 -92 131 -133 254 -133 116 0 204 54 253 157 16 35 18 73 18
458 0 398 -1 422 -19 450 -33 51 -79 96 -116 112 -44 20 -222 27 -269 11z
m171 -216 c10 -11 14 -94 16 -341 2 -179 1 -340 -3 -358 -11 -60 -63 -83 -99
-44 -15 16 -17 54 -17 367 0 192 3 356 6 365 14 36 71 43 97 11z"/>
<path d="M4987 3718 c-45 -12 -103 -67 -128 -123 -29 -66 -43 -168 -30 -223
21 -85 54 -135 186 -272 143 -150 159 -179 153 -280 -2 -44 -8 -56 -29 -73
-21 -15 -31 -17 -47 -8 -31 16 -40 60 -52 232 0 4 -49 7 -109 8 l-110 2 4 -33
c2 -18 7 -77 9 -131 12 -212 104 -297 311 -285 100 7 155 32 191 89 45 72 54
113 54 245 0 181 -9 200 -174 372 -156 162 -166 175 -166 224 0 29 6 41 25 54
47 31 85 -5 85 -82 l0 -34 120 0 120 0 -5 28 c-2 15 -7 47 -10 72 -14 111 -85
200 -175 219 -62 13 -171 13 -223 -1z"/>
<path d="M5650 3718 c-72 -21 -127 -82 -157 -178 -16 -48 -18 -97 -17 -385 1
-197 6 -360 13 -403 22 -140 107 -222 228 -222 72 0 116 16 166 61 l46 40 15
-35 c16 -38 41 -56 79 -56 23 0 25 5 31 58 3 31 4 127 2 212 -1 85 -3 215 -4
288 l-2 132 -134 0 -135 0 -6 -52 c-4 -29 -5 -73 -3 -98 3 -41 6 -45 33 -50
l30 -5 -2 -125 c-1 -121 -2 -125 -28 -147 -14 -13 -30 -23 -34 -23 -21 0 -53
39 -61 75 -11 47 -12 567 -1 643 8 59 14 68 53 77 45 11 65 -19 73 -114 l7
-81 110 0 110 0 -7 83 c-15 185 -69 275 -184 307 -45 12 -175 11 -221 -2z"/>
<path d="M1590 3618 c0 -22 83 -118 102 -118 20 0 4 32 -38 79 -45 50 -64 62
-64 39z"/>
<path d="M2468 3603 c-36 -40 -58 -75 -58 -93 1 -15 110 96 110 112 0 17 -27
7 -52 -19z"/>
<path d="M6355 3557 c-93 -31 -150 -80 -185 -159 -19 -45 -21 -65 -21 -338 0
-159 3 -307 7 -328 23 -128 126 -202 279 -202 138 0 223 46 269 145 l26 54 0
304 c0 343 -3 364 -70 440 -23 26 -60 53 -90 66 -63 27 -162 35 -215 18z m116
-186 l24 -19 0 -307 c0 -292 -1 -307 -19 -321 -25 -18 -47 -18 -72 0 -18 14
-19 31 -22 303 -2 158 0 298 3 310 6 26 31 53 50 53 7 0 23 -9 36 -19z"/>
<path d="M1956 3509 c-97 -24 -227 -133 -267 -223 -38 -86 -69 -595 -36 -597
6 0 76 -1 155 -2 l142 -2 0 32 c0 22 8 40 26 56 22 21 25 30 22 83 -3 56 -4
59 -28 56 -14 -1 -34 4 -45 12 -18 13 -20 26 -20 129 0 123 8 147 50 147 12 0
39 -13 59 -29 l37 -30 45 35 c53 39 58 40 83 15 16 -16 19 -36 20 -134 2 -134
-7 -152 -65 -141 l-34 6 0 -60 c0 -50 4 -66 25 -90 14 -17 25 -42 25 -56 0
-24 4 -26 43 -27 23 0 91 -1 150 -2 60 -1 112 0 116 3 5 3 4 116 -1 252 -7
209 -11 255 -28 301 -63 167 -194 266 -360 273 -41 2 -93 -1 -114 -7z m64 -79
c0 -6 -12 -15 -27 -20 -16 -6 -39 -16 -53 -23 -41 -20 -133 -118 -159 -169
-27 -53 -41 -61 -41 -23 0 67 108 200 181 223 72 22 99 26 99 12z"/>
<path d="M1450 3418 c0 -16 91 -68 120 -68 29 0 18 15 -33 44 -57 32 -87 41
-87 24z"/>
<path d="M2625 3421 c-79 -28 -127 -63 -105 -76 11 -7 119 42 132 60 18 24 9
29 -27 16z"/>
<path d="M1372 3179 c8 -24 140 -40 153 -18 11 16 4 19 -80 26 -64 5 -77 4
-73 -8z"/>
<path d="M2603 3183 c-25 -5 -30 -18 -12 -28 6 -4 39 -4 75 0 45 5 64 11 64
21 0 10 -13 14 -52 13 -29 -1 -63 -4 -75 -6z"/>
<path d="M1944 3147 c-3 -8 -4 -52 -2 -98 3 -76 5 -84 23 -84 27 0 65 60 65
102 0 52 -71 118 -86 80z"/>
<path d="M2111 3136 c-12 -13 -26 -40 -32 -60 -8 -30 -7 -43 8 -68 25 -42 51
-58 63 -38 11 17 14 149 4 174 -8 22 -17 20 -43 -8z"/>
<path d="M2044 2886 c1 -83 9 -115 22 -82 8 21 -5 166 -15 166 -4 0 -7 -38 -7
-84z"/>
<path d="M2001 2731 c-8 -5 -11 -16 -8 -25 5 -12 20 -16 62 -16 53 0 56 1 53
23 -3 19 -10 22 -48 25 -25 1 -51 -2 -59 -7z"/>
<path d="M1567 2633 c-4 -3 -7 -28 -7 -55 l0 -48 489 0 489 0 6 23 c6 27 -3
69 -18 79 -14 10 -950 10 -959 1z"/>
<path d="M1494 2464 c-13 -19 -15 -32 -8 -52 l9 -27 550 -3 c318 -1 553 2 558
7 15 15 12 81 -3 92 -9 5 -244 9 -552 9 l-538 0 -16 -26z"/>
<path d="M4185 679 c-8 -12 1 -24 18 -24 7 -1 11 -6 10 -13 -2 -7 -4 -18 -5
-24 -5 -23 26 -14 39 11 8 17 9 31 2 43 -11 20 -54 25 -64 7z"/>
<path d="M456 625 c9 -14 25 -25 35 -25 16 0 17 3 7 25 -7 16 -19 25 -35 25
-23 0 -23 -1 -7 -25z"/>
<path d="M927 643 c-12 -11 -8 -23 7 -23 21 0 30 -19 17 -34 -9 -10 -8 -15 5
-20 32 -12 54 26 38 68 -6 16 -54 22 -67 9z"/>
<path d="M1830 631 c-13 -26 -13 -31 3 -31 8 0 24 11 37 25 l23 25 -26 0 c-16
0 -30 -8 -37 -19z"/>
<path d="M2382 638 c-7 -7 -12 -18 -12 -25 0 -21 25 -15 50 12 l23 25 -24 0
c-14 0 -30 -5 -37 -12z"/>
<path d="M4830 631 c-14 -28 -13 -33 11 -29 12 2 28 13 37 26 14 21 13 22 -11
22 -16 0 -31 -8 -37 -19z"/>
<path d="M2830 613 c-19 -10 -36 -26 -38 -36 -3 -17 1 -18 30 -12 42 9 51 17
46 44 -3 21 -4 21 -38 4z"/>
<path d="M5453 618 c-6 -7 -16 -23 -22 -35 -11 -21 -10 -23 17 -23 22 0 31 6
36 23 l7 22 9 -22 c6 -15 18 -23 35 -23 30 0 30 3 8 41 -13 22 -25 29 -49 29
-17 0 -36 -6 -41 -12z"/>
<path d="M367 592 c-33 -36 -7 -60 28 -26 15 15 17 15 34 0 35 -32 65 -10 31
24 -25 25 -71 26 -93 2z"/>
<path d="M1705 588 c-15 -22 -14 -23 5 -26 12 -2 28 2 37 10 13 10 17 10 20 1
5 -14 53 -18 53 -5 0 19 -38 42 -68 42 -21 0 -36 -7 -47 -22z"/>
<path d="M2260 590 c-11 -11 -20 -24 -20 -30 0 -16 32 -12 53 7 18 17 19 17
28 0 12 -20 49 -23 49 -4 0 22 -34 47 -63 47 -15 0 -36 -9 -47 -20z"/>
<path d="M4097 592 c-10 -10 -17 -22 -17 -25 0 -12 45 -8 58 5 9 9 15 8 24 -4
8 -10 20 -13 31 -9 16 6 16 8 2 29 -20 28 -75 30 -98 4z"/>
<path d="M4708 588 l-21 -21 24 -9 c18 -7 27 -5 37 9 12 17 14 17 23 1 6 -10
21 -18 35 -18 22 0 24 2 13 23 -7 12 -17 25 -23 29 -22 15 -66 8 -88 -14z"/>
<path d="M2410 582 c0 -26 6 -30 35 -24 38 7 34 42 -5 42 -22 0 -30 -5 -30
-18z"/>
<path d="M6310 581 c0 -19 18 -31 46 -31 8 0 14 10 14 25 0 21 -5 25 -30 25
-23 0 -30 -5 -30 -19z"/>
<path d="M790 560 c0 -16 -4 -30 -10 -30 -5 0 -10 -11 -10 -25 0 -14 5 -25 10
-25 6 0 10 -40 10 -99 0 -81 3 -100 16 -105 48 -18 76 9 49 47 -17 25 -21 157
-5 157 6 0 10 11 10 25 0 14 -4 25 -10 25 -5 0 -10 14 -10 30 0 25 -4 30 -25
30 -21 0 -25 -5 -25 -30z"/>
<path d="M1517 584 c-4 -4 -7 -76 -7 -161 l0 -153 25 0 c24 0 25 3 25 57 0 64
8 63 31 -5 15 -46 34 -60 64 -49 10 5 8 20 -12 74 -24 67 -25 69 -8 122 11 36
13 57 7 63 -17 17 -42 1 -60 -39 l-17 -38 -5 65 c-4 48 -9 66 -20 68 -9 1 -19
0 -23 -4z"/>
<path d="M1870 560 c0 -16 -4 -30 -10 -30 -5 0 -10 -11 -10 -25 0 -14 5 -25
10 -25 6 0 10 -38 10 -93 0 -99 7 -117 47 -117 18 0 23 6 23 24 0 14 -4 28
-10 31 -5 3 -10 37 -10 75 0 38 5 72 10 75 6 3 10 17 10 30 0 13 -4 27 -10 30
-5 3 -10 17 -10 31 0 19 -5 24 -25 24 -21 0 -25 -5 -25 -30z"/>
<path d="M3243 583 c-7 -2 -13 -16 -13 -29 0 -13 -4 -24 -10 -24 -5 0 -10 -11
-10 -25 0 -14 5 -25 10 -25 6 0 10 -38 10 -93 0 -99 7 -117 47 -117 27 0 41
26 24 43 -14 14 -15 167 -1 167 13 0 13 33 1 46 -5 5 -11 20 -13 34 -3 24 -21
34 -45 23z"/>
<path d="M3718 583 c-2 -5 -2 -77 0 -160 l3 -153 25 0 c23 0 24 3 24 57 0 64
8 63 31 -5 13 -40 20 -47 42 -47 15 0 27 3 27 8 0 4 -9 39 -21 77 -20 66 -20
72 -5 112 24 61 24 60 -6 64 -23 2 -29 -4 -45 -39 l-18 -42 -3 68 c-3 63 -4
67 -27 67 -13 0 -25 -3 -27 -7z"/>
<path d="M3895 578 c-3 -8 -4 -79 -3 -158 l3 -145 28 -3 27 -3 0 105 c0 66 4
107 11 112 21 12 29 -21 29 -119 l0 -98 26 3 27 3 -2 113 c-1 62 -5 120 -7
127 -8 19 -44 29 -57 16 -18 -18 -26 -13 -29 22 -2 24 -8 33 -26 35 -12 2 -24
-3 -27 -10z"/>
<path d="M5140 561 c0 -17 -4 -33 -10 -36 -5 -3 -10 -15 -10 -26 0 -10 5 -19
10 -19 6 0 10 -40 10 -99 0 -104 3 -111 51 -111 14 0 19 7 19 25 0 14 -4 25
-10 25 -6 0 -10 33 -10 80 0 47 4 80 10 80 6 0 10 11 10 25 0 14 -4 25 -10 25
-5 0 -10 14 -10 30 0 25 -4 30 -25 30 -21 0 -25 -5 -25 -29z"/>
<path d="M5240 430 l0 -161 28 3 27 3 3 108 c2 85 6 107 17 107 11 0 15 -22
17 -107 3 -108 3 -108 28 -108 25 0 25 1 28 100 2 55 0 110 -3 122 -7 30 -39
47 -64 33 -17 -9 -20 -6 -23 22 -2 28 -8 34 -30 36 l-28 3 0 -161z"/>
<path d="M6584 577 c-2 -7 -3 -78 -2 -157 l3 -145 27 -3 27 -3 3 108 c2 88 6
108 18 108 12 0 16 -20 18 -107 3 -107 3 -108 27 -108 l25 0 0 119 c0 95 -3
123 -16 135 -18 19 -28 20 -55 6 -17 -10 -19 -7 -19 25 0 31 -3 35 -25 35 -14
0 -28 -6 -31 -13z"/>
<path d="M160 425 l0 -155 25 0 c24 0 25 2 25 73 1 81 11 75 30 -16 11 -55 13
-58 38 -55 l27 3 3 153 3 152 -30 0 c-30 0 -30 -1 -33 -62 l-3 -63 -14 63
c-13 58 -15 62 -42 62 l-29 0 0 -155z"/>
<path d="M2890 551 c0 -5 -9 -12 -20 -16 -17 -5 -20 -17 -22 -108 -2 -83 -6
-102 -18 -102 -12 0 -16 19 -18 102 -3 104 -10 121 -47 107 -12 -5 -15 -25
-15 -94 0 -48 3 -102 6 -120 8 -39 41 -58 73 -41 15 8 21 9 21 1 0 -6 12 -10
28 -8 l27 3 3 114 c2 83 7 117 17 128 23 23 18 43 -10 43 -14 0 -25 -4 -25 -9z"/>
<path d="M3560 552 c0 -5 -19 -12 -42 -18 -55 -12 -68 -37 -68 -137 0 -69 3
-81 25 -102 28 -29 70 -32 103 -9 22 15 23 22 22 122 0 59 2 117 6 130 5 19 3
22 -20 22 -14 0 -26 -4 -26 -8z m-15 -85 c4 -13 5 -50 3 -82 -2 -45 -7 -60
-18 -60 -12 0 -16 16 -18 69 -2 38 -1 75 2 83 8 20 25 15 31 -10z"/>
<path d="M375 528 c-32 -18 -35 -28 -35 -124 0 -103 9 -122 60 -130 44 -7 75
17 85 64 6 30 5 32 -24 32 -23 0 -30 -5 -33 -22 -6 -41 -28 -32 -28 11 l0 41
46 0 47 0 -5 51 c-3 28 -12 57 -19 65 -20 19 -70 26 -94 12z m53 -71 c2 -19
-1 -27 -12 -27 -20 0 -29 16 -21 41 9 27 29 19 33 -14z"/>
<path d="M514 526 c-3 -7 -3 -66 -2 -132 l3 -119 27 -3 27 -3 3 108 c2 88 6
108 18 108 12 0 16 -20 18 -107 3 -107 3 -108 27 -108 l25 0 0 124 c0 141 -8
159 -61 139 -16 -6 -29 -8 -29 -3 0 12 -51 9 -56 -4z"/>
<path d="M922 530 c-18 -8 -42 -45 -42 -66 0 -2 14 -4 30 -4 20 0 30 5 30 15
0 20 26 19 34 -1 8 -22 -8 -40 -42 -47 -48 -10 -69 -89 -36 -135 17 -24 43
-29 63 -10 11 10 14 10 18 1 3 -7 16 -13 29 -13 24 0 24 0 24 113 0 75 -4 119
-12 130 -16 21 -65 30 -96 17z m50 -165 c-3 -29 -8 -45 -16 -42 -16 5 -20 55
-5 73 19 24 24 16 21 -31z"/>
<path d="M1146 533 c-3 -4 -24 -6 -46 -5 l-40 3 0 -131 0 -131 28 3 27 3 5
104 c3 69 9 106 17 108 9 3 13 -24 15 -104 l3 -108 28 -3 27 -3 0 119 c0 102
-3 121 -18 135 -20 18 -34 21 -46 10z"/>
<path d="M1260 520 c-16 -16 -20 -33 -20 -94 0 -41 3 -82 6 -90 10 -26 41 -38
65 -26 27 15 34 7 19 -20 -10 -18 -17 -21 -45 -16 -24 5 -34 3 -38 -9 -14 -36
89 -49 123 -15 18 18 20 33 20 151 l0 131 -34 -3 c-19 -2 -38 0 -42 4 -13 12
-33 8 -54 -13z m75 -60 c9 -43 -3 -110 -21 -110 -11 0 -14 16 -14 70 0 54 3
70 14 70 8 0 17 -14 21 -30z"/>
<path d="M1730 533 c-43 -16 -50 -34 -50 -125 0 -81 2 -91 25 -113 26 -27 54
-31 88 -14 29 16 37 28 37 62 0 23 -4 27 -30 27 -25 0 -30 -4 -30 -25 0 -16
-6 -25 -15 -25 -11 0 -15 11 -15 40 l0 40 45 0 45 0 0 48 c0 53 -5 64 -37 81
-23 12 -39 13 -63 4z m40 -73 c0 -20 -5 -30 -15 -30 -10 0 -15 10 -15 30 0 20
5 30 15 30 10 0 15 -10 15 -30z"/>
<path d="M2072 532 c-22 -3 -23 -5 -20 -130 l3 -127 25 0 c25 0 25 0 28 108 2
86 6 107 17 107 8 0 15 -6 16 -12 0 -7 1 -56 2 -108 2 -94 2 -95 27 -95 25 0
25 0 28 105 2 58 0 115 -3 127 -6 26 -37 38 -63 24 -10 -6 -23 -7 -28 -3 -5 5
-19 6 -32 4z"/>
<path d="M2283 533 c-40 -8 -53 -40 -53 -134 0 -83 1 -89 26 -108 30 -24 55
-26 87 -10 34 18 37 28 37 125 0 74 -3 94 -17 106 -22 19 -51 26 -80 21z m37
-128 c0 -69 -3 -85 -15 -85 -12 0 -15 16 -15 85 0 69 3 85 15 85 12 0 15 -16
15 -85z"/>
<path d="M2433 532 c-22 -3 -23 -6 -23 -133 l0 -130 28 3 27 3 3 124 c1 68 -1
127 -5 131 -4 3 -18 4 -30 2z"/>
<path d="M2607 520 c-26 -21 -27 -25 -27 -115 0 -89 1 -95 26 -114 15 -12 38
-21 51 -21 34 0 73 42 73 80 0 27 -3 30 -29 30 -25 0 -30 -5 -33 -27 -2 -14
-9 -28 -15 -31 -10 -3 -13 18 -13 82 0 70 3 86 15 86 10 0 15 -10 15 -31 0
-27 3 -30 28 -27 21 2 28 9 30 29 7 60 -71 98 -121 59z"/>
<path d="M2978 533 c-16 -4 -18 -19 -18 -124 0 -119 0 -120 26 -131 20 -9 30
-9 45 0 13 8 19 9 19 1 0 -5 12 -9 28 -7 l27 3 3 128 3 127 -30 0 -30 0 -3
-102 c-2 -68 -7 -103 -15 -105 -9 -3 -13 24 -15 103 -3 107 -6 116 -40 107z"/>
<path d="M3416 533 c-3 -4 -24 -6 -46 -5 l-40 3 0 -131 0 -131 28 3 27 3 3
101 c2 92 5 102 22 107 14 3 20 14 20 31 0 27 -2 30 -14 19z"/>
<path d="M4110 533 c-21 -8 -40 -34 -40 -55 0 -13 8 -18 30 -18 20 0 30 5 30
15 0 8 7 15 15 15 9 0 15 -9 15 -24 0 -19 -8 -27 -35 -36 -42 -14 -55 -35 -55
-89 0 -57 45 -92 77 -60 8 8 13 8 17 0 4 -6 18 -11 32 -11 l24 0 0 113 c0 97
-3 116 -18 130 -20 19 -69 29 -92 20z m50 -168 c0 -33 -4 -45 -15 -45 -11 0
-15 11 -15 38 0 21 3 42 7 45 16 16 23 4 23 -38z"/>
<path d="M4326 533 c-4 -4 -23 -6 -42 -4 l-34 3 0 -132 0 -131 28 3 27 3 3
108 c2 86 6 107 17 107 12 0 15 -20 15 -111 l0 -110 28 3 27 3 3 115 c3 107 1
116 -19 133 -23 18 -41 22 -53 10z"/>
<path d="M4536 517 c-24 -24 -26 -33 -26 -116 0 -85 1 -91 26 -110 34 -27 64
-27 98 0 19 15 26 30 26 55 0 31 -3 34 -30 34 -27 0 -30 -3 -30 -30 0 -20 -5
-30 -15 -30 -12 0 -15 16 -15 85 0 69 3 85 15 85 9 0 15 -9 15 -23 0 -31 5
-35 35 -29 19 3 25 11 25 32 0 33 -25 58 -67 66 -26 5 -37 1 -57 -19z"/>
<path d="M4720 528 c-34 -18 -41 -68 -9 -68 12 0 28 8 35 18 12 14 15 15 23 3
13 -20 -4 -51 -28 -51 -30 0 -61 -42 -61 -83 0 -57 47 -95 79 -65 11 10 14 10
18 1 3 -7 16 -13 29 -13 l24 0 0 119 c0 87 -4 122 -13 130 -23 18 -70 22 -97
9z m50 -164 c0 -32 -4 -44 -12 -42 -17 6 -22 56 -7 74 17 21 19 18 19 -32z"/>
<path d="M4873 533 c-10 -4 -13 -44 -13 -159 l0 -154 30 0 c27 0 30 3 30 30 0
27 2 29 28 24 43 -9 58 14 65 93 6 64 -3 146 -17 160 -7 8 -105 12 -123 6z
m82 -129 c0 -64 -3 -79 -15 -79 -12 0 -16 16 -18 69 -3 76 2 100 21 93 8 -2
12 -28 12 -83z"/>
<path d="M5465 531 c-38 -16 -45 -36 -47 -130 -3 -103 5 -118 64 -128 31 -4
41 -1 63 21 26 26 27 31 23 116 -3 96 -12 114 -58 124 -14 3 -34 1 -45 -3z
m40 -127 c0 -64 -3 -79 -15 -79 -12 0 -16 16 -18 69 -3 76 2 100 21 93 8 -2
12 -28 12 -83z"/>
<path d="M5675 531 c-3 -5 -21 -7 -40 -4 l-35 6 0 -132 0 -131 25 0 c24 0 24
1 27 108 2 87 6 107 18 107 12 0 16 -20 18 -108 l3 -108 27 3 27 3 0 118 c0
106 -2 120 -19 133 -23 16 -42 18 -51 5z"/>
<path d="M5798 529 c-15 -8 -18 -25 -18 -102 0 -51 4 -97 8 -103 12 -18 42
-24 63 -14 15 8 19 7 19 -3 0 -23 -26 -38 -54 -31 -19 4 -28 2 -32 -11 -9 -23
12 -35 63 -35 33 0 46 5 62 26 19 24 21 40 21 151 l0 124 -37 -1 c-21 -1 -47
1 -58 4 -11 3 -28 1 -37 -5z m67 -109 c0 -85 -22 -94 -27 -10 -3 69 -1 83 16
77 7 -2 11 -28 11 -67z"/>
<path d="M6116 533 c-4 -4 -23 -6 -42 -4 l-34 3 0 -132 0 -131 28 3 27 3 3
108 c2 85 6 107 17 107 11 0 15 -22 17 -107 l3 -108 27 -3 27 -3 3 108 c2 88
6 108 18 108 12 0 16 -20 18 -107 3 -107 3 -108 27 -108 l25 0 0 119 c0 95 -3
123 -16 135 -18 19 -45 21 -61 5 -8 -8 -17 -8 -31 0 -24 13 -46 14 -56 4z"/>
<path d="M6486 533 c-3 -4 -25 -6 -47 -5 l-40 3 3 -128 3 -128 25 0 c25 0 25
1 30 104 3 69 9 106 17 108 9 3 13 -24 15 -104 l3 -108 28 -3 27 -3 0 120 c0
95 -3 123 -16 135 -16 17 -36 21 -48 9z"/>
<path d="M6312 403 l3 -128 28 -3 27 -3 0 130 0 131 -30 0 -31 0 3 -127z"/>
<path d="M3500 225 c0 -21 5 -25 30 -25 25 0 30 4 30 25 0 21 -5 25 -30 25
-25 0 -30 -4 -30 -25z"/>
</g>
</svg>
