<svg width="46" height="46" viewBox="0 0 46 46" fill="none" xmlns="http://www.w3.org/2000/svg">
<path d="M6.16131 0.361176C5.49489 0.576855 4.6135 0.965084 4.20505 1.2239C3.0012 1.95722 1.49639 3.74738 0.765482 5.30029L0.0775677 6.74537L0.0130757 22.4902C-0.0299189 33.4468 0.034573 38.5369 0.185054 39.184C0.851471 41.88 2.70024 44.1878 5.10794 45.3309L6.52676 45.9995H22.9722H39.4177L40.9225 45.2662C42.8142 44.3172 44.1901 42.9368 45.1359 41.0388L45.8668 39.529V23.0294V6.52968L45.1789 5.08461C44.2975 3.18661 42.7497 1.6337 40.858 0.749401L39.4177 0.0592194L23.4022 0.0160828C8.41853 -0.0270538 7.30067 -0.00548553 6.16131 0.361176ZM25.4229 9.44139C28.0026 10.7571 30.3888 11.5982 33.8713 12.4609C36.1501 13.0001 35.9996 12.806 36.2146 16.0413C36.4725 20.1824 35.6556 24.3882 33.8284 28.0979C31.8291 32.1527 29.2709 34.7625 25.2079 36.8762L23.0582 37.9977L21.6609 37.3291C15.9211 34.6546 12.1806 30.039 10.5038 23.6764C9.98783 21.6706 9.66537 16.3432 9.94483 14.1217L10.0953 12.9354L11.7506 12.5688C14.5668 11.9433 18.4793 10.5629 20.715 9.35512C21.8973 8.70807 22.8862 8.19043 22.8862 8.16887C22.9077 8.1473 24.0471 8.72964 25.4229 9.44139Z" fill="#FF0000"/>
</svg>
