<svg width="271" height="59" viewBox="0 0 271 59" fill="none" xmlns="http://www.w3.org/2000/svg">
<path d="M8.02498 0.463406C7.15699 0.740041 6.009 1.23799 5.477 1.56995C3.90901 2.51051 1.94902 4.80659 0.997025 6.79836L0.10103 8.65182L0.0170309 28.8462C-0.0389688 42.8993 0.0450307 49.4279 0.24103 50.2578C1.10902 53.7158 3.51701 56.6758 6.65299 58.1419L8.50098 58.9995H29.9209H51.3407L53.3007 58.059C55.7647 56.8418 57.5567 55.0713 58.7887 52.6369L59.7407 50.7004V29.5378V8.37519L58.8447 6.52173C57.6967 4.08733 55.6807 2.09556 53.2167 0.96135L51.3407 0.0761158L30.4809 0.0207886C10.965 -0.0345385 9.50897 -0.00687493 8.02498 0.463406ZM33.1128 12.1098C36.4728 13.7972 39.5808 14.8761 44.1168 15.9827C47.0848 16.6743 46.8888 16.4253 47.1688 20.5748C47.5048 25.8862 46.4408 31.2806 44.0608 36.0388C41.4568 41.2395 38.1248 44.5868 32.8328 47.2978L30.0329 48.7363L28.2129 47.8788C20.7369 44.4485 15.8649 38.5285 13.681 30.3677C13.009 27.795 12.589 20.9621 12.953 18.1128L13.149 16.5913L15.3049 16.121C18.9729 15.3187 24.0689 13.5483 26.9809 11.9991C28.5209 11.1692 29.8089 10.5053 29.8089 10.4776C29.8369 10.45 31.3208 11.1969 33.1128 12.1098Z" fill="#FF0000"/>
<path d="M8.02498 0.463406C7.15699 0.740041 6.009 1.23799 5.477 1.56995C3.90901 2.51051 1.94902 4.80659 0.997025 6.79836L0.10103 8.65182L0.0170309 28.8462C-0.0389688 42.8993 0.0450307 49.4279 0.24103 50.2578C1.10902 53.7158 3.51701 56.6758 6.65299 58.1419L8.50098 58.9995H29.9209H51.3407L53.3007 58.059C55.7647 56.8418 57.5567 55.0713 58.7887 52.6369L59.7407 50.7004V29.5378V8.37519L58.8447 6.52173C57.6967 4.08733 55.6807 2.09556 53.2167 0.96135L51.3407 0.0761158L30.4809 0.0207886C10.965 -0.0345385 9.50897 -0.00687493 8.02498 0.463406ZM33.1128 12.1098C36.4728 13.7972 39.5808 14.8761 44.1168 15.9827C47.0848 16.6743 46.8888 16.4253 47.1688 20.5748C47.5048 25.8862 46.4408 31.2806 44.0608 36.0388C41.4568 41.2395 38.1248 44.5868 32.8328 47.2978L30.0329 48.7363L28.2129 47.8788C20.7369 44.4485 15.8649 38.5285 13.681 30.3677C13.009 27.795 12.589 20.9621 12.953 18.1128L13.149 16.5913L15.3049 16.121C18.9729 15.3187 24.0689 13.5483 26.9809 11.9991C28.5209 11.1692 29.8089 10.5053 29.8089 10.4776C29.8369 10.45 31.3208 11.1969 33.1128 12.1098Z" fill="#FF0000"/>
<path d="M27.0216 14.1466C24.1903 15.5777 19.2974 17.3809 17.2907 17.7243C15.6414 18.0105 15.504 18.4398 15.6964 22.6758C15.8613 26.7115 16.4111 29.8884 17.4282 32.6933C19.3524 38.0456 23.5031 42.8254 28.451 45.4299L29.9079 46.1741L31.8046 45.2009C34.4435 43.7985 37.5222 41.1653 39.2265 38.847C42.4701 34.3534 43.8995 29.6881 44.1194 22.7044L44.2843 18.2681L40.6834 17.2091C38.7042 16.6367 35.5705 15.4346 33.7013 14.5473C31.8321 13.6601 30.2103 12.8873 30.0453 12.83C29.9079 12.7728 28.5335 13.3738 27.0216 14.1466ZM32.9866 16.4077C34.5534 17.1805 37.3023 18.2395 39.089 18.7547L42.3327 19.6992L42.1952 23.42C41.8379 32.5502 38.3194 38.9615 31.3373 43.2547L30.1003 43.9988L28.2861 43.0257C27.0491 42.3674 25.6747 41.2512 23.9704 39.4766C21.8263 37.2442 21.2765 36.4714 20.2045 34.153C18.3903 30.2319 17.4007 25.3662 17.5931 21.4451L17.6756 19.7278L20.3694 18.9264C23.6405 17.9533 26.9117 16.6367 28.396 15.7208C29.0008 15.3487 29.633 15.0053 29.7979 15.0053C29.9629 14.9766 31.3923 15.6063 32.9866 16.4077Z" fill="#FF0000"/>
<path d="M114.708 4.2379C107.624 5.20612 102.22 9.88127 100.512 16.5482C99.9797 18.6506 99.9797 22.4682 100.512 24.5706C101.576 28.7202 104.712 32.9527 108.072 34.7785C113.336 37.6555 119.86 37.8491 125.292 35.3041C129.324 33.3953 132.712 29.2458 133.86 24.7089C134.84 20.9744 134.308 16.4375 132.516 12.8136C131.284 10.3515 128.008 7.11491 125.572 5.95304C122.352 4.40388 118.264 3.76762 114.708 4.2379ZM118.852 10.8772C122.828 11.6241 125.544 14.3628 126.412 18.4846C127.112 21.8596 126.16 25.1792 123.752 27.7243C121.96 29.6054 120.168 30.3523 117.312 30.3523C115.324 30.38 114.848 30.2693 113.196 29.4671C110.228 28.0286 108.548 25.7048 107.932 22.1639C107.54 20.0338 108.072 17.0185 109.164 15.165C110.424 13.0902 112.888 11.3751 115.296 10.8772C116.948 10.5729 117.2 10.5729 118.852 10.8772Z" fill="#FF0000"/>
<path d="M180.423 4.23796C173.535 5.06787 167.991 9.826 166.311 16.2716C165.751 18.4017 165.751 22.9939 166.311 25.124C167.823 30.7673 172.051 34.9169 177.959 36.5213C180.535 37.2129 185.743 37.1576 188.655 36.383C191.259 35.6638 193.723 34.4189 195.431 32.9527L196.691 31.8462V25.0963V18.3464H189.551H182.411V21.2511V24.1557H185.183C186.695 24.1557 188.347 24.2387 188.823 24.3217C189.691 24.5154 189.719 24.543 189.579 25.7879C189.523 26.4795 189.439 27.4754 189.439 27.9733C189.411 28.8032 189.271 28.9415 187.815 29.6331C186.387 30.2694 185.827 30.38 183.391 30.38C180.759 30.38 180.451 30.3247 178.687 29.4671C175.299 27.8073 173.591 24.7643 173.591 20.4211C173.591 18.3187 173.731 17.6825 174.347 16.3823C176.755 11.2092 182.467 9.32806 187.955 11.9008C188.767 12.2604 189.803 12.8967 190.279 13.284C190.727 13.6712 191.147 13.9479 191.175 13.8925C191.231 13.8372 192.239 12.703 193.415 11.3475C194.591 10.0196 195.571 8.83011 195.571 8.6918C195.571 8.30451 192.995 6.50637 191.343 5.75946C188.263 4.37628 184.063 3.79535 180.423 4.23796Z" fill="#FF0000"/>
<path d="M80.0998 4.5422C77.2438 5.20612 74.5838 7.1979 73.2678 9.6323C72.5959 10.8772 72.5119 11.2921 72.5119 13.9201C72.5119 17.2674 72.9319 18.3463 74.8918 20.0891C76.3758 21.4446 78.2518 22.2192 83.0958 23.6024C87.4078 24.8196 88.3878 25.2899 89.2558 26.4241C89.7318 27.0603 89.7878 27.3646 89.5638 28.2222C88.6958 31.7355 81.8358 31.5142 76.9638 27.8626C76.2918 27.337 75.6198 26.8944 75.5078 26.839C75.3678 26.8114 74.3038 27.8903 73.1279 29.2734L70.9719 31.7632L72.0079 32.6207C76.4598 36.4106 83.4038 37.9598 89.4518 36.5489C94.0717 35.4701 96.7317 32.3994 96.9557 27.9179C97.1517 24.128 96.0877 21.8596 93.2317 19.9508C91.7197 18.9549 90.0678 18.374 83.4318 16.4375C80.7158 15.663 79.7918 14.8607 79.7918 13.3669C79.7918 11.0985 82.3398 9.88127 85.7558 10.5729C87.3518 10.8772 89.9838 12.0114 91.5797 13.0626L92.4477 13.6435L94.3517 10.9878L96.2557 8.33211L95.4437 7.66818C94.1557 6.64463 90.8797 5.12313 88.8918 4.68051C86.9038 4.21023 81.8918 4.12724 80.0998 4.5422Z" fill="#FF0000"/>
<path d="M145.115 4.76372C141.979 5.78727 139.991 7.33643 138.675 9.85382C138.227 10.7114 138.031 11.6519 137.947 13.5331C137.807 16.6037 138.423 18.2912 140.327 20.034C141.923 21.4725 143.771 22.2748 148.363 23.5196C153.739 24.9581 155.251 25.8987 155.251 27.8905C155.251 28.997 154.019 30.1589 152.423 30.5185C149.623 31.1824 146.235 30.3249 142.875 28.1394L140.887 26.8116L139.515 28.2778C138.787 29.08 137.835 30.1589 137.415 30.6845L136.687 31.6527L137.499 32.4826C140.495 35.5809 147.439 37.628 152.647 36.9365C156.791 36.3832 159.227 35.166 160.991 32.7869C162.223 31.0994 162.671 29.495 162.643 26.8669C162.587 21.8598 159.815 19.3701 151.835 17.2953C147.523 16.1611 146.039 15.4695 145.563 14.3353C144.835 12.6202 145.815 11.0987 147.999 10.6007C150.351 10.0475 153.375 10.7944 156.371 12.6478C157.295 13.2288 158.023 13.5054 158.191 13.3671C158.359 13.2288 159.227 12.0669 160.123 10.7667C161.691 8.4983 161.747 8.35999 161.299 7.86204C160.683 7.19812 157.939 5.75961 155.895 5.0127C153.487 4.18279 147.355 4.01681 145.115 4.76372Z" fill="#FF0000"/>
<path d="M208.955 12.2328C206.631 12.9797 205.063 13.9756 203.467 15.7184C197.643 22.0257 199.547 32.2889 207.219 35.8299C213.239 38.6239 220.575 36.6874 224.131 31.4037C225.363 29.5502 226.091 26.9775 226.091 24.4601C226.091 19.2041 223.599 15.1928 218.923 12.9244C216.907 11.9285 216.655 11.8732 213.687 11.7902C211.195 11.7349 210.215 11.8179 208.955 12.2328ZM215.787 18.3741C217.467 19.2041 219.091 22.2194 219.091 24.4325C219.091 25.7603 218.251 28.0287 217.355 29.0246C216.151 30.3801 215.031 30.8781 213.211 30.8781C209.571 30.8781 207.191 28.1947 207.219 24.1558C207.275 19.1487 211.559 16.2717 215.787 18.3741Z" fill="#FF0000"/>
<path d="M72.2481 53.9678V44.5132H78.6188V46.1613H74.247V48.4142H78.2911V50.0622H74.247V52.3197H78.6373V53.9678H72.2481ZM81.2081 44.5132H83.6733L86.2769 50.8655H86.3877L88.9914 44.5132H91.4566V53.9678H89.5177V47.814H89.4392L86.9925 53.9216H85.6722L83.2255 47.7909H83.147V53.9678H81.2081V44.5132ZM94.1036 53.9678V44.5132H100.474V46.1613H96.1025V48.4142H100.147V50.0622H96.1025V52.3197H100.493V53.9678H94.1036ZM103.064 53.9678V44.5132H106.794C107.508 44.5132 108.117 44.641 108.622 44.8964C109.13 45.1488 109.516 45.5073 109.78 45.972C110.048 46.4337 110.182 46.9769 110.182 47.6017C110.182 48.2295 110.047 48.7696 109.776 49.222C109.505 49.6714 109.113 50.0161 108.599 50.2561C108.088 50.4962 107.469 50.6162 106.743 50.6162H104.245V49.0097H106.42C106.801 49.0097 107.118 48.9574 107.371 48.8527C107.623 48.7481 107.811 48.5911 107.934 48.3818C108.06 48.1726 108.123 47.9125 108.123 47.6017C108.123 47.2877 108.06 47.0231 107.934 46.8076C107.811 46.5922 107.622 46.4291 107.366 46.3183C107.114 46.2044 106.795 46.1475 106.41 46.1475H105.062V53.9678H103.064ZM108.169 49.6652L110.519 53.9678H108.312L106.013 49.6652H108.169ZM118.864 47.5693C118.799 47.3447 118.709 47.1462 118.592 46.9738C118.475 46.7984 118.332 46.6507 118.162 46.5306C117.996 46.4075 117.805 46.3137 117.59 46.249C117.377 46.1844 117.142 46.1521 116.883 46.1521C116.4 46.1521 115.976 46.2721 115.609 46.5122C115.246 46.7522 114.963 47.1015 114.76 47.5601C114.557 48.0156 114.455 48.5727 114.455 49.2313C114.455 49.8899 114.555 50.45 114.755 50.9117C114.955 51.3733 115.238 51.7257 115.605 51.9688C115.971 52.2089 116.403 52.3289 116.902 52.3289C117.354 52.3289 117.741 52.2489 118.061 52.0889C118.384 51.9258 118.63 51.6965 118.799 51.401C118.972 51.1056 119.058 50.7562 119.058 50.3531L119.464 50.4131H117.027V48.9081H120.983V50.0992C120.983 50.9301 120.807 51.6441 120.457 52.2412C120.106 52.8352 119.623 53.2938 119.007 53.6169C118.392 53.937 117.687 54.097 116.893 54.097C116.006 54.097 115.228 53.9016 114.557 53.5107C113.886 53.1168 113.363 52.5582 112.987 51.835C112.615 51.1086 112.429 50.2469 112.429 49.2497C112.429 48.4834 112.539 47.8002 112.761 47.2C112.986 46.5968 113.3 46.0859 113.703 45.6673C114.106 45.2488 114.575 44.9302 115.111 44.7117C115.646 44.4932 116.226 44.384 116.851 44.384C117.387 44.384 117.885 44.4624 118.347 44.6194C118.809 44.7733 119.218 44.9918 119.575 45.2749C119.935 45.5581 120.229 45.8951 120.457 46.286C120.684 46.6737 120.831 47.1015 120.895 47.5693H118.864ZM123.484 53.9678V44.5132H129.855V46.1613H125.483V48.4142H129.527V50.0622H125.483V52.3197H129.874V53.9678H123.484ZM140.352 44.5132V53.9678H138.626L134.513 48.0171H134.443V53.9678H132.444V44.5132H134.199L138.28 50.4593H138.363V44.5132H140.352ZM151.346 47.8232H149.324C149.287 47.5616 149.212 47.3293 149.098 47.1262C148.984 46.92 148.838 46.7445 148.659 46.5999C148.481 46.4552 148.274 46.3444 148.041 46.2675C147.81 46.1905 147.559 46.1521 147.288 46.1521C146.799 46.1521 146.372 46.2736 146.009 46.5168C145.646 46.7568 145.365 47.1077 145.164 47.5693C144.964 48.0279 144.864 48.585 144.864 49.2405C144.864 49.9145 144.964 50.4808 145.164 50.9394C145.368 51.3979 145.651 51.7442 146.014 51.9781C146.377 52.212 146.797 52.3289 147.274 52.3289C147.542 52.3289 147.79 52.2935 148.017 52.2227C148.248 52.152 148.453 52.0489 148.631 51.9134C148.81 51.7749 148.958 51.6072 149.075 51.4102C149.195 51.2133 149.278 50.9886 149.324 50.7362L151.346 50.7455C151.294 51.1794 151.163 51.598 150.954 52.0012C150.747 52.4012 150.469 52.7598 150.118 53.0768C149.77 53.3907 149.355 53.64 148.871 53.8247C148.391 54.0062 147.848 54.097 147.242 54.097C146.399 54.097 145.645 53.9062 144.98 53.5246C144.318 53.143 143.795 52.5905 143.41 51.8673C143.029 51.144 142.838 50.2684 142.838 49.2405C142.838 48.2095 143.032 47.3324 143.419 46.6091C143.807 45.8859 144.333 45.335 144.998 44.9564C145.663 44.5748 146.411 44.384 147.242 44.384C147.79 44.384 148.298 44.4609 148.765 44.6148C149.236 44.7687 149.653 44.9933 150.016 45.2888C150.38 45.5812 150.675 45.9397 150.903 46.3644C151.134 46.7892 151.281 47.2754 151.346 47.8232ZM153.225 44.5132H155.464L157.62 48.585H157.713L159.868 44.5132H162.107L158.659 50.6254V53.9678H156.674V50.6254L153.225 44.5132ZM173.337 47.2323C173.3 46.8599 173.142 46.5706 172.861 46.3644C172.581 46.1582 172.201 46.0551 171.721 46.0551C171.395 46.0551 171.12 46.1013 170.895 46.1936C170.67 46.2829 170.498 46.4075 170.378 46.5676C170.261 46.7276 170.202 46.9092 170.202 47.1123C170.196 47.2816 170.232 47.4293 170.309 47.5555C170.389 47.6817 170.498 47.7909 170.636 47.8833C170.775 47.9725 170.935 48.051 171.116 48.1187C171.298 48.1833 171.492 48.2387 171.698 48.2849L172.548 48.488C172.96 48.5803 173.339 48.7035 173.683 48.8573C174.028 49.0112 174.326 49.2005 174.579 49.4252C174.831 49.6498 175.027 49.9145 175.165 50.2192C175.307 50.5239 175.379 50.8732 175.382 51.2671C175.379 51.8457 175.231 52.3474 174.939 52.7721C174.65 53.1937 174.231 53.5215 173.683 53.7554C173.138 53.9862 172.481 54.1017 171.712 54.1017C170.949 54.1017 170.284 53.9847 169.718 53.7508C169.154 53.5169 168.714 53.1707 168.397 52.7121C168.083 52.2504 167.919 51.6795 167.903 50.9994H169.838C169.859 51.3164 169.95 51.5811 170.11 51.7934C170.273 52.0027 170.49 52.1612 170.761 52.2689C171.035 52.3735 171.344 52.4259 171.689 52.4259C172.027 52.4259 172.321 52.3766 172.571 52.2781C172.823 52.1797 173.018 52.0427 173.157 51.8673C173.295 51.6919 173.365 51.4903 173.365 51.2625C173.365 51.0502 173.302 50.8717 173.175 50.727C173.052 50.5824 172.871 50.4593 172.631 50.3577C172.394 50.2561 172.103 50.1638 171.758 50.0807L170.729 49.8222C169.932 49.6283 169.302 49.3251 168.841 48.9127C168.379 48.5003 168.15 47.9448 168.153 47.2462C168.15 46.6737 168.302 46.1736 168.61 45.7458C168.921 45.318 169.347 44.9841 169.888 44.7441C170.43 44.504 171.046 44.384 171.735 44.384C172.437 44.384 173.049 44.504 173.572 44.7441C174.099 44.9841 174.508 45.318 174.8 45.7458C175.093 46.1736 175.244 46.6691 175.253 47.2323H173.337ZM183.566 44.5132H185.565V50.6531C185.565 51.3425 185.401 51.9458 185.071 52.4628C184.745 52.9798 184.288 53.383 183.7 53.6723C183.113 53.9585 182.428 54.1017 181.646 54.1017C180.861 54.1017 180.175 53.9585 179.587 53.6723C178.999 53.383 178.542 52.9798 178.216 52.4628C177.89 51.9458 177.727 51.3425 177.727 50.6531V44.5132H179.726V50.4823C179.726 50.8424 179.804 51.1625 179.961 51.4426C180.121 51.7226 180.346 51.9427 180.635 52.1027C180.924 52.2628 181.261 52.3428 181.646 52.3428C182.034 52.3428 182.371 52.2628 182.657 52.1027C182.946 51.9427 183.169 51.7226 183.326 51.4426C183.486 51.1625 183.566 50.8424 183.566 50.4823V44.5132ZM188.21 53.9678V44.5132H191.94C192.657 44.5132 193.268 44.6502 193.773 44.9241C194.278 45.1949 194.662 45.5719 194.927 46.0551C195.195 46.5352 195.329 47.0892 195.329 47.7171C195.329 48.3449 195.193 48.8989 194.922 49.379C194.652 49.8591 194.259 50.233 193.745 50.5008C193.234 50.7686 192.616 50.9024 191.889 50.9024H189.512V49.3005H191.566C191.951 49.3005 192.268 49.2343 192.517 49.102C192.77 48.9666 192.957 48.7804 193.08 48.5434C193.207 48.3034 193.27 48.0279 193.27 47.7171C193.27 47.4031 193.207 47.1292 193.08 46.8953C192.957 46.6584 192.77 46.4752 192.517 46.346C192.265 46.2136 191.945 46.1475 191.557 46.1475H190.209V53.9678H188.21ZM197.627 53.9678V44.5132H201.357C202.074 44.5132 202.685 44.6502 203.19 44.9241C203.695 45.1949 204.079 45.5719 204.344 46.0551C204.612 46.5352 204.746 47.0892 204.746 47.7171C204.746 48.3449 204.61 48.8989 204.339 49.379C204.069 49.8591 203.676 50.233 203.162 50.5008C202.651 50.7686 202.033 50.9024 201.306 50.9024H198.929V49.3005H200.983C201.368 49.3005 201.685 49.2343 201.934 49.102C202.187 48.9666 202.374 48.7804 202.497 48.5434C202.624 48.3034 202.687 48.0279 202.687 47.7171C202.687 47.4031 202.624 47.1292 202.497 46.8953C202.374 46.6584 202.187 46.4752 201.934 46.346C201.682 46.2136 201.362 46.1475 200.974 46.1475H199.626V53.9678H197.627ZM215.732 49.2405C215.732 50.2715 215.537 51.1486 215.146 51.8719C214.758 52.5951 214.229 53.1476 213.558 53.5292C212.89 53.9078 212.139 54.097 211.305 54.097C210.465 54.097 209.711 53.9062 209.043 53.5246C208.375 53.143 207.847 52.5905 207.459 51.8673C207.072 51.144 206.878 50.2684 206.878 49.2405C206.878 48.2095 207.072 47.3324 207.459 46.6091C207.847 45.8859 208.375 45.335 209.043 44.9564C209.711 44.5748 210.465 44.384 211.305 44.384C212.139 44.384 212.89 44.5748 213.558 44.9564C214.229 45.335 214.758 45.8859 215.146 46.6091C215.537 47.3324 215.732 48.2095 215.732 49.2405ZM213.706 49.2405C213.706 48.5727 213.606 48.0094 213.405 47.5509C213.209 47.0923 212.93 46.7445 212.57 46.5075C212.21 46.2706 211.788 46.1521 211.305 46.1521C210.822 46.1521 210.4 46.2706 210.04 46.5075C209.68 46.7445 209.4 47.0923 209.2 47.5509C209.003 48.0094 208.904 48.5727 208.904 49.2405C208.904 49.9084 209.003 50.4716 209.2 50.9301C209.4 51.3887 209.68 51.7365 210.04 51.9735C210.4 52.2104 210.822 52.3289 211.305 52.3289C211.788 52.3289 212.21 52.2104 212.57 51.9735C212.93 51.7365 213.209 51.3887 213.405 50.9301C213.606 50.4716 213.706 49.9084 213.706 49.2405ZM218.213 53.9678V44.5132H221.943C222.657 44.5132 223.266 44.641 223.771 44.8964C224.279 45.1488 224.665 45.5073 224.93 45.972C225.198 46.4337 225.332 46.9769 225.332 47.6017C225.332 48.2295 225.196 48.7696 224.925 49.222C224.654 49.6714 224.262 50.0161 223.748 50.2561C223.237 50.4962 222.619 50.6162 221.892 50.6162H219.395V49.0097H221.569C221.951 49.0097 222.268 48.9574 222.52 48.8527C222.772 48.7481 222.96 48.5911 223.083 48.3818C223.21 48.1726 223.273 47.9125 223.273 47.6017C223.273 47.2877 223.21 47.0231 223.083 46.8076C222.96 46.5922 222.771 46.4291 222.515 46.3183C222.263 46.2044 221.945 46.1475 221.56 46.1475H220.212V53.9678H218.213ZM223.319 49.6652L225.669 53.9678H223.462L221.163 49.6652H223.319ZM227.384 46.1613V44.5132H235.149V46.1613H232.254V53.9678H230.279V46.1613H227.384Z" fill="#059669"/>
</svg>
