<?xml version="1.0" standalone="no"?>
<!DOCTYPE svg PUBLIC "-//W3C//DTD SVG 20010904//EN"
 "http://www.w3.org/TR/2001/REC-SVG-20010904/DTD/svg10.dtd">
<svg version="1.0" xmlns="http://www.w3.org/2000/svg"
 width="1024.000000pt" height="1024.000000pt" viewBox="0 0 1024.000000 1024.000000"
 preserveAspectRatio="xMidYMid meet">

<g transform="translate(0.000000,1024.000000) scale(0.100000,-0.100000)"
fill="#000000" stroke="none">
<path d="M1348 6171 c-31 -10 -72 -28 -91 -40 -56 -34 -126 -117 -160 -189
l-32 -67 -3 -730 c-2 -508 1 -744 8 -774 31 -125 117 -232 229 -285 l66 -31
765 0 765 0 70 34 c88 44 152 108 196 196 l34 70 0 765 0 765 -32 67 c-41 88
-113 160 -201 201 l-67 32 -745 2 c-697 2 -749 1 -802 -16z m896 -421 c120
-61 231 -100 393 -140 106 -25 99 -16 109 -166 12 -192 -26 -387 -111 -559
-93 -188 -212 -309 -401 -407 l-100 -52 -65 31 c-267 124 -441 338 -519 633
-24 93 -39 340 -26 443 l7 55 77 17 c131 29 313 93 417 149 55 30 101 54 101
55 1 1 54 -26 118 -59z"/>
<path d="M2025 5649 c-103 -50 -281 -113 -354 -125 -60 -10 -65 -25 -58 -173
6 -141 26 -252 63 -350 70 -187 221 -354 401 -445 l53 -26 69 34 c96 49 208
141 270 222 118 157 170 320 178 564 l6 155 -131 37 c-72 20 -186 62 -254 93
-68 31 -127 58 -133 60 -5 2 -55 -19 -110 -46z m217 -79 c57 -27 157 -64 222
-82 l118 -33 -5 -130 c-13 -319 -141 -543 -395 -693 l-45 -26 -66 34 c-45 23
-95 62 -157 124 -78 78 -98 105 -137 186 -66 137 -102 307 -95 444 l3 60 98
28 c119 34 238 80 292 112 22 13 45 25 51 25 6 1 58 -21 116 -49z"/>
<path d="M5202 5710 c-253 -35 -446 -204 -507 -445 -19 -76 -19 -214 0 -290
38 -150 150 -303 270 -369 188 -104 421 -111 615 -19 144 69 265 219 306 383
35 135 16 299 -48 430 -44 89 -161 206 -248 248 -115 56 -261 79 -388 62z
m148 -240 c142 -27 239 -126 270 -275 25 -122 -9 -242 -95 -334 -64 -68 -128
-95 -230 -95 -71 -1 -88 3 -147 32 -106 52 -166 136 -188 264 -14 77 5 186 44
253 45 75 133 137 219 155 59 11 68 11 127 0z"/>
<path d="M7549 5710 c-246 -30 -444 -202 -504 -435 -20 -77 -20 -243 0 -320
54 -204 205 -354 416 -412 92 -25 278 -23 382 5 93 26 181 71 242 124 l45 40
0 244 0 244 -255 0 -255 0 0 -105 0 -105 99 0 c54 0 113 -3 130 -6 31 -7 32
-8 27 -53 -2 -25 -5 -61 -5 -79 -1 -30 -6 -35 -58 -60 -51 -23 -71 -27 -158
-27 -94 0 -105 2 -168 33 -121 60 -182 170 -182 327 0 76 5 99 27 146 86 187
290 255 486 162 29 -13 66 -36 83 -50 16 -14 31 -24 32 -22 2 2 38 43 80 92
42 48 77 91 77 96 0 14 -92 79 -151 106 -110 50 -260 71 -390 55z"/>
<path d="M3966 5699 c-102 -24 -197 -96 -244 -184 -24 -45 -27 -60 -27 -155 0
-121 15 -160 85 -223 53 -49 120 -77 293 -127 154 -44 189 -61 220 -102 17
-23 19 -34 11 -65 -31 -127 -276 -119 -450 13 -24 19 -48 35 -52 37 -5 1 -43
-38 -85 -88 l-77 -90 37 -31 c159 -137 407 -193 623 -142 165 39 260 150 268
312 7 137 -31 219 -133 288 -54 36 -113 57 -350 127 -97 28 -130 57 -130 111
0 82 91 126 213 101 57 -11 151 -52 208 -90 l31 -21 68 96 68 96 -29 24 c-46
37 -163 92 -234 108 -71 17 -250 20 -314 5z"/>
<path d="M6288 5691 c-112 -37 -183 -93 -230 -184 -16 -31 -23 -65 -26 -133
-5 -111 17 -172 85 -235 57 -52 123 -81 287 -126 192 -52 246 -86 246 -158 0
-40 -44 -82 -101 -95 -100 -24 -221 7 -341 86 l-71 48 -49 -53 c-26 -29 -60
-68 -75 -87 l-26 -35 29 -30 c107 -112 355 -186 541 -161 148 20 235 64 298
150 44 61 60 119 59 214 -2 181 -101 271 -386 346 -154 41 -207 66 -224 107
-26 62 9 117 87 135 84 20 192 -7 299 -74 33 -21 59 -31 65 -26 6 5 37 47 69
94 56 82 58 87 42 105 -22 24 -120 76 -193 103 -86 30 -305 36 -385 9z"/>
<path d="M8568 5421 c-83 -27 -139 -63 -196 -126 -208 -228 -140 -599 134
-727 215 -101 477 -31 604 160 44 67 70 160 70 251 0 190 -89 335 -256 417
-72 36 -81 38 -187 41 -89 2 -124 -1 -169 -16z m244 -222 c60 -30 118 -139
118 -219 0 -48 -30 -130 -62 -166 -43 -49 -83 -67 -148 -67 -130 0 -215 97
-214 243 2 181 155 285 306 209z"/>
</g>
</svg>
