<svg width="21" height="21" viewBox="0 0 21 21" fill="none" xmlns="http://www.w3.org/2000/svg">
<path d="M15.125 5.5L13.75 10.275L10.35 6.875L15.125 5.5ZM18.4 20.625L16.125 18.35C15.3083 18.8833 14.4375 19.2917 13.5125 19.575C12.5875 19.8583 11.625 20 10.625 20C9.24167 20 7.94167 19.7375 6.725 19.2125C5.50833 18.6875 4.45 17.975 3.55 17.075C2.65 16.175 1.9375 15.1167 1.4125 13.9C0.8875 12.6833 0.625 11.3833 0.625 10C0.625 9 0.766667 8.0375 1.05 7.1125C1.33333 6.1875 1.74167 5.31667 2.275 4.5L0 2.225L1.425 0.8L19.825 19.2L18.4 20.625ZM18.975 15.5L17.525 14.05C17.8917 13.4167 18.1667 12.7625 18.35 12.0875C18.5333 11.4125 18.625 10.7167 18.625 10C18.625 7.78333 17.8458 5.89583 16.2875 4.3375C14.7292 2.77917 12.8417 2 10.625 2C9.90833 2 9.2125 2.09167 8.5375 2.275C7.8625 2.45833 7.20833 2.73333 6.575 3.1L5.125 1.65C5.94167 1.11667 6.8125 0.708333 7.7375 0.425C8.6625 0.141667 9.625 0 10.625 0C12.0083 0 13.3083 0.2625 14.525 0.7875C15.7417 1.3125 16.8 2.025 17.7 2.925C18.6 3.825 19.3125 4.88333 19.8375 6.1C20.3625 7.31667 20.625 8.61667 20.625 10C20.625 11 20.4833 11.9625 20.2 12.8875C19.9167 13.8125 19.5083 14.6833 18.975 15.5ZM10.625 18C11.3417 18 12.0375 17.9083 12.7125 17.725C13.3875 17.5417 14.0417 17.2667 14.675 16.9L10.9 13.125L6.125 14.5L7.5 9.725L3.725 5.95C3.35833 6.58333 3.08333 7.2375 2.9 7.9125C2.71667 8.5875 2.625 9.28333 2.625 10C2.625 12.2167 3.40417 14.1042 4.9625 15.6625C6.52083 17.2208 8.40833 18 10.625 18Z" fill="#0D9488"/>
</svg>
