<svg width="250" height="46" viewBox="0 0 250 46" fill="none" xmlns="http://www.w3.org/2000/svg">
<path d="M6.16131 0.361191C5.49489 0.57687 4.6135 0.965099 4.20505 1.22392C3.0012 1.95724 1.49639 3.7474 0.765482 5.30031L0.0775677 6.74538L0.0130757 22.4902C-0.0299189 33.4468 0.034573 38.5369 0.185054 39.184C0.851471 41.88 2.70024 44.1878 5.10794 45.3309L6.52676 45.9995H22.9722H39.4177L40.9225 45.2662C42.8142 44.3172 44.1901 42.9368 45.1359 41.0388L45.8668 39.5291V23.0294V6.5297L45.1789 5.08463C44.2975 3.18663 42.7497 1.63371 40.858 0.749416L39.4177 0.0592346L23.4022 0.016098C8.41853 -0.0270386 7.30067 -0.00547028 6.16131 0.361191ZM25.4229 9.44141C28.0026 10.7571 30.3888 11.5982 33.8713 12.461C36.1501 13.0002 35.9996 12.806 36.2146 16.0413C36.4725 20.1824 35.6556 24.3882 33.8284 28.0979C31.8291 32.1527 29.2709 34.7625 25.2079 36.8762L23.0582 37.9977L21.6609 37.3291C15.9211 34.6546 12.1806 30.039 10.5038 23.6764C9.98783 21.6706 9.66537 16.3432 9.94483 14.1217L10.0953 12.9355L11.7506 12.5688C14.5668 11.9433 18.4793 10.563 20.715 9.35513C21.8973 8.70809 22.8862 8.19045 22.8862 8.16888C22.9077 8.14731 24.0471 8.72966 25.4229 9.44141Z" fill="#FF0000"/>
<path d="M6.16131 0.361191C5.49489 0.57687 4.6135 0.965099 4.20505 1.22392C3.0012 1.95724 1.49639 3.7474 0.765482 5.30031L0.0775677 6.74538L0.0130757 22.4902C-0.0299189 33.4468 0.034573 38.5369 0.185054 39.184C0.851471 41.88 2.70024 44.1878 5.10794 45.3309L6.52676 45.9995H22.9722H39.4177L40.9225 45.2662C42.8142 44.3172 44.1901 42.9368 45.1359 41.0388L45.8668 39.5291V23.0294V6.5297L45.1789 5.08463C44.2975 3.18663 42.7497 1.63371 40.858 0.749416L39.4177 0.0592346L23.4022 0.016098C8.41853 -0.0270386 7.30067 -0.00547028 6.16131 0.361191ZM25.4229 9.44141C28.0026 10.7571 30.3888 11.5982 33.8713 12.461C36.1501 13.0002 35.9996 12.806 36.2146 16.0413C36.4725 20.1824 35.6556 24.3882 33.8284 28.0979C31.8291 32.1527 29.2709 34.7625 25.2079 36.8762L23.0582 37.9977L21.6609 37.3291C15.9211 34.6546 12.1806 30.039 10.5038 23.6764C9.98783 21.6706 9.66537 16.3432 9.94483 14.1217L10.0953 12.9355L11.7506 12.5688C14.5668 11.9433 18.4793 10.563 20.715 9.35513C21.8973 8.70809 22.8862 8.19045 22.8862 8.16888C22.9077 8.14731 24.0471 8.72966 25.4229 9.44141Z" fill="#FF0000"/>
<path d="M20.7463 11.0294C18.5725 12.1452 14.8159 13.5511 13.2752 13.8188C12.009 14.042 11.9034 14.3767 12.0512 17.6793C12.1778 20.8258 12.5999 23.3027 13.3808 25.4896C14.8581 29.6625 18.0449 33.3892 21.8437 35.4198L22.9623 36L24.4185 35.2413C26.4445 34.1479 28.8083 32.0949 30.1167 30.2874C32.6071 26.7839 33.7045 23.1465 33.8734 17.7017L34 14.2428L31.2353 13.4172C29.7158 12.9709 27.3098 12.0336 25.8747 11.3419C24.4396 10.6501 23.1944 10.0476 23.0678 10.003C22.9623 9.95833 21.907 10.4269 20.7463 11.0294ZM25.326 12.7923C26.529 13.3948 28.6394 14.2205 30.0112 14.6222L32.5016 15.3586L32.396 18.2595C32.1217 25.378 29.4203 30.3766 24.0597 33.7239L23.11 34.3041L21.7171 33.5454C20.7674 33.0321 19.7122 32.1618 18.4037 30.7783C16.7575 29.0377 16.3354 28.4352 15.5123 26.6277C14.1194 23.5705 13.3597 19.777 13.5074 16.7198L13.5707 15.3809L15.639 14.7561C18.1504 13.9974 20.6619 12.9709 21.8015 12.2568C22.2658 11.9667 22.7512 11.6989 22.8779 11.6989C23.0045 11.6766 24.1019 12.1675 25.326 12.7923Z" fill="#FF0000"/>
<path d="M88.0686 3.30417C82.6298 4.05906 78.4808 7.70409 77.1695 12.902C76.761 14.5412 76.761 17.5176 77.1695 19.1568C77.9864 22.392 80.3941 25.692 82.9737 27.1155C87.0152 29.3586 92.0241 29.5096 96.1946 27.5253C99.2902 26.0371 101.891 22.8018 102.773 19.2646C103.525 16.3529 103.117 12.8158 101.741 9.99032C100.795 8.07075 98.2798 5.54727 96.4096 4.6414C93.9374 3.43358 90.7988 2.93751 88.0686 3.30417ZM91.2502 8.48054C94.3028 9.06289 96.3881 11.1981 97.0545 14.4118C97.5919 17.0431 96.861 19.6313 95.0122 21.6156C93.6364 23.0822 92.2606 23.6646 90.0678 23.6646C88.5415 23.6861 88.1761 23.5999 86.9077 22.9744C84.629 21.8528 83.3392 20.0411 82.8662 17.2804C82.5653 15.6196 82.9737 13.2687 83.8121 11.8236C84.7795 10.206 86.6713 8.86877 88.52 8.48054C89.7884 8.24329 89.9819 8.24329 91.2502 8.48054Z" fill="#FF0000"/>
<path d="M138.523 3.30413C133.234 3.95117 128.978 7.66091 127.688 12.6863C127.258 14.3471 127.258 17.9274 127.688 19.5881C128.849 23.988 132.095 27.2233 136.631 28.4742C138.609 29.0134 142.607 28.9703 144.843 28.3664C146.842 27.8056 148.734 26.835 150.045 25.6919L151.013 24.8292V19.5666V14.3039H145.531H140.049V16.5686V18.8332H142.177C143.338 18.8332 144.607 18.8979 144.972 18.9626C145.638 19.1136 145.66 19.1352 145.552 20.1058C145.509 20.645 145.445 21.4214 145.445 21.8097C145.423 22.4567 145.316 22.5645 144.198 23.1037C143.102 23.5998 142.672 23.6861 140.801 23.6861C138.781 23.6861 138.544 23.6429 137.19 22.9743C134.589 21.6802 133.277 19.3077 133.277 15.9215C133.277 14.2823 133.385 13.7863 133.858 12.7726C135.707 8.73932 140.092 7.27268 144.306 9.27852C144.929 9.55891 145.724 10.055 146.09 10.3569C146.434 10.6589 146.756 10.8746 146.778 10.8314C146.821 10.7883 147.595 9.904 148.498 8.84716C149.4 7.81188 150.153 6.88445 150.153 6.77661C150.153 6.47465 148.175 5.07272 146.907 4.49038C144.542 3.41197 141.317 2.95904 138.523 3.30413Z" fill="#FF0000"/>
<path d="M61.4979 3.54141C59.3052 4.05904 57.2629 5.61196 56.2526 7.50996C55.7366 8.48053 55.6721 8.80405 55.6721 10.853C55.6721 13.4628 55.9946 14.3039 57.4994 15.6627C58.6388 16.7196 60.0791 17.3235 63.7981 18.4019C67.1087 19.3509 67.8611 19.7176 68.5275 20.6019C68.893 21.0979 68.936 21.3352 68.764 22.0038C68.0976 24.743 62.8307 24.5704 59.0902 21.7234C58.5743 21.3136 58.0583 20.9685 57.9723 20.9254C57.8649 20.9038 57.048 21.745 56.1451 22.8234L54.4898 24.7645L55.2852 25.4331C58.7033 28.388 64.0346 29.5958 68.678 28.4958C72.2251 27.6547 74.2673 25.2606 74.4393 21.7665C74.5898 18.8117 73.7729 17.0431 71.5802 15.5549C70.4193 14.7784 69.151 14.3255 64.0561 12.8157C61.9709 12.2118 61.2614 11.5864 61.2614 10.4217C61.2614 8.65307 63.2177 7.70407 65.8404 8.24328C67.0657 8.48053 69.0865 9.36482 70.3118 10.1844L70.9782 10.6373L72.44 8.5668L73.9019 6.49625L73.2784 5.97861C72.2896 5.18059 69.7744 3.99434 68.2481 3.64925C66.7218 3.28259 62.8737 3.21788 61.4979 3.54141Z" fill="#FF0000"/>
<path d="M111.415 3.71408C109.007 4.5121 107.481 5.71992 106.47 7.68263C106.126 8.35124 105.976 9.08456 105.911 10.5512C105.804 12.9453 106.277 14.2609 107.739 15.6197C108.964 16.7413 110.383 17.3668 113.908 18.3373C118.036 19.4589 119.197 20.1922 119.197 21.7451C119.197 22.6078 118.251 23.5137 117.025 23.7941C114.876 24.3117 112.275 23.6431 109.695 21.9392L108.169 20.9039L107.115 22.0471C106.556 22.6725 105.825 23.5137 105.503 23.9235L104.944 24.6784L105.567 25.3254C107.868 27.7411 113.199 29.3371 117.197 28.7979C120.379 28.3665 122.249 27.4175 123.604 25.5627C124.55 24.247 124.893 22.9961 124.872 20.9471C124.829 17.0432 122.701 15.1021 116.574 13.4845C113.263 12.6002 112.124 12.061 111.759 11.1767C111.2 9.83945 111.952 8.6532 113.629 8.26497C115.435 7.83361 117.756 8.41595 120.057 9.86102C120.766 10.314 121.325 10.5296 121.454 10.4218C121.583 10.3139 122.249 9.40809 122.937 8.39438C124.141 6.62579 124.184 6.51795 123.84 6.12972C123.367 5.61208 121.26 4.49054 119.691 3.90819C117.842 3.26115 113.134 3.13174 111.415 3.71408Z" fill="#FF0000"/>
<path d="M160.429 9.53753C158.644 10.1199 157.44 10.8963 156.215 12.2551C151.744 17.1727 153.205 25.1745 159.096 27.9352C163.718 30.1136 169.35 28.6038 172.08 24.4843C173.026 23.0392 173.585 21.0334 173.585 19.0707C173.585 14.9727 171.672 11.8453 168.082 10.0767C166.534 9.30027 166.34 9.25714 164.062 9.19243C162.148 9.1493 161.396 9.214 160.429 9.53753ZM165.674 14.3257C166.964 14.9727 168.211 17.3236 168.211 19.0491C168.211 20.0844 167.566 21.853 166.878 22.6294C165.953 23.6863 165.093 24.0745 163.696 24.0745C160.901 24.0745 159.074 21.9824 159.096 18.8334C159.139 14.9296 162.428 12.6865 165.674 14.3257Z" fill="#FF0000"/>
<path d="M55.3491 42V34.7273H60.2497V35.995H56.8867V37.728H59.9975V38.9958H56.8867V40.7323H60.2639V42H55.3491ZM62.4721 34.7273H64.3685L66.3713 39.6137H66.4565L68.4594 34.7273H70.3557V42H68.8642V37.2664H68.8038L66.9217 41.9645H65.9061L64.024 37.2486H63.9636V42H62.4721V34.7273ZM72.6225 42V34.7273H77.5231V35.995H74.1602V37.728H77.271V38.9958H74.1602V40.7323H77.5373V42H72.6225ZM79.7456 42V34.7273H82.6149C83.1641 34.7273 83.6329 34.8255 84.0212 35.022C84.4118 35.2162 84.7089 35.492 84.9125 35.8494C85.1185 36.2046 85.2214 36.6224 85.2214 37.103C85.2214 37.586 85.1173 38.0014 84.9089 38.3494C84.7006 38.6951 84.3988 38.9602 84.0034 39.1449C83.6104 39.3296 83.1345 39.4219 82.5758 39.4219H80.6547V38.1861H82.3273C82.6208 38.1861 82.8647 38.1458 83.0588 38.0654C83.2529 37.9849 83.3973 37.8641 83.492 37.7031C83.5891 37.5422 83.6376 37.3421 83.6376 37.103C83.6376 36.8615 83.5891 36.6579 83.492 36.4922C83.3973 36.3265 83.2517 36.201 83.0552 36.1158C82.8611 36.0282 82.6161 35.9844 82.3202 35.9844H81.2832V42H79.7456ZM83.6731 38.6904L85.4807 42H83.7832L82.0148 38.6904H83.6731ZM92.1305 37.0781C92.0808 36.9053 92.011 36.7526 91.921 36.62C91.831 36.4851 91.721 36.3715 91.5908 36.2791C91.4629 36.1844 91.3161 36.1122 91.1504 36.0625C90.9871 36.0128 90.806 35.9879 90.6071 35.9879C90.2354 35.9879 89.9087 36.0803 89.627 36.2649C89.3476 36.4496 89.1298 36.7183 88.9736 37.071C88.8173 37.4214 88.7392 37.8499 88.7392 38.3565C88.7392 38.8632 88.8161 39.294 88.97 39.6492C89.1239 40.0043 89.3417 40.2753 89.6234 40.4624C89.9051 40.647 90.2378 40.7394 90.6213 40.7394C90.9693 40.7394 91.2664 40.6778 91.5126 40.5547C91.7612 40.4292 91.9506 40.2529 92.0808 40.0256C92.2134 39.7983 92.2797 39.5296 92.2797 39.2195L92.5922 39.2656H90.7172V38.108H93.7605V39.0242C93.7605 39.6634 93.6256 40.2126 93.3557 40.6719C93.0858 41.1288 92.7141 41.4815 92.2406 41.7301C91.7671 41.9763 91.225 42.0994 90.6142 42.0994C89.9324 42.0994 89.3334 41.9491 88.8173 41.6485C88.3012 41.3454 87.8988 40.9157 87.6099 40.3594C87.3235 39.8007 87.1802 39.1378 87.1802 38.3708C87.1802 37.7813 87.2655 37.2557 87.4359 36.794C87.6087 36.33 87.8502 35.937 88.1604 35.6151C88.4705 35.2931 88.8315 35.0481 89.2435 34.88C89.6554 34.7119 90.1016 34.6279 90.5822 34.6279C90.9942 34.6279 91.3777 34.6882 91.7328 34.809C92.0879 34.9273 92.4028 35.0954 92.6774 35.3132C92.9544 35.531 93.1805 35.7903 93.3557 36.0909C93.5309 36.3892 93.6433 36.7183 93.693 37.0781H92.1305ZM95.9155 42V34.7273H100.816V35.995H97.4531V37.728H100.564V38.9958H97.4531V40.7323H100.83V42H95.9155ZM109.122 34.7273V42H107.794L104.629 37.4226H104.576V42H103.039V34.7273H104.388L107.527 39.3012H107.591V34.7273H109.122ZM117.809 37.2735H116.254C116.225 37.0722 116.167 36.8935 116.08 36.7372C115.992 36.5786 115.88 36.4437 115.742 36.3324C115.605 36.2211 115.446 36.1359 115.266 36.0767C115.089 36.0175 114.896 35.9879 114.688 35.9879C114.311 35.9879 113.983 36.0815 113.704 36.2685C113.425 36.4531 113.208 36.723 113.054 37.0781C112.9 37.4309 112.823 37.8594 112.823 38.3637C112.823 38.8821 112.9 39.3177 113.054 39.6705C113.21 40.0232 113.428 40.2896 113.707 40.4695C113.987 40.6494 114.31 40.7394 114.677 40.7394C114.883 40.7394 115.073 40.7121 115.249 40.6577C115.426 40.6032 115.584 40.5239 115.721 40.4198C115.858 40.3132 115.972 40.1842 116.062 40.0327C116.154 39.8812 116.218 39.7083 116.254 39.5142L117.809 39.5213C117.769 39.8551 117.668 40.1771 117.507 40.4872C117.349 40.795 117.134 41.0708 116.864 41.3146C116.597 41.5561 116.277 41.7479 115.906 41.8899C115.536 42.0296 115.118 42.0994 114.652 42.0994C114.003 42.0994 113.423 41.9527 112.912 41.6591C112.403 41.3655 112 40.9406 111.705 40.3842C111.411 39.8279 111.264 39.1544 111.264 38.3637C111.264 37.5706 111.413 36.8958 111.712 36.3395C112.01 35.7832 112.415 35.3594 112.926 35.0682C113.438 34.7746 114.013 34.6279 114.652 34.6279C115.073 34.6279 115.464 34.687 115.824 34.8054C116.186 34.9238 116.507 35.0966 116.786 35.3239C117.066 35.5488 117.293 35.8246 117.468 36.1513C117.646 36.478 117.759 36.8521 117.809 37.2735ZM119.485 34.7273H121.208L122.866 37.8594H122.937L124.596 34.7273H126.318L123.665 39.429V42H122.138V39.429L119.485 34.7273ZM135.417 36.8189C135.389 36.5324 135.267 36.3099 135.052 36.1513C134.836 35.9927 134.544 35.9134 134.175 35.9134C133.924 35.9134 133.712 35.9489 133.539 36.0199C133.366 36.0886 133.234 36.1844 133.141 36.3075C133.051 36.4306 133.006 36.5703 133.006 36.7266C133.002 36.8568 133.029 36.9704 133.088 37.0675C133.149 37.1646 133.234 37.2486 133.34 37.3196C133.447 37.3883 133.57 37.4486 133.709 37.5007C133.849 37.5504 133.998 37.5931 134.157 37.6286L134.81 37.7848C135.127 37.8558 135.419 37.9505 135.684 38.0689C135.949 38.1873 136.179 38.3329 136.373 38.5057C136.567 38.6785 136.717 38.8821 136.824 39.1165C136.933 39.3509 136.988 39.6196 136.991 39.9226C136.988 40.3677 136.875 40.7536 136.65 41.0803C136.427 41.4046 136.105 41.6567 135.684 41.8367C135.265 42.0142 134.759 42.103 134.167 42.103C133.58 42.103 133.069 42.013 132.633 41.8331C132.2 41.6532 131.862 41.3869 131.618 41.0341C131.376 40.679 131.25 40.2398 131.238 39.7166H132.726C132.742 39.9605 132.812 40.1641 132.935 40.3274C133.061 40.4884 133.228 40.6103 133.436 40.6932C133.647 40.7737 133.885 40.8139 134.15 40.8139C134.41 40.8139 134.636 40.7761 134.828 40.7003C135.022 40.6245 135.172 40.5192 135.279 40.3842C135.385 40.2493 135.439 40.0942 135.439 39.919C135.439 39.7557 135.39 39.6184 135.293 39.5071C135.198 39.3958 135.059 39.3012 134.874 39.223C134.692 39.1449 134.468 39.0739 134.203 39.01L133.411 38.8111C132.798 38.6619 132.314 38.4288 131.959 38.1115C131.604 37.7943 131.427 37.367 131.43 36.8296C131.427 36.3892 131.544 36.0045 131.781 35.6754C132.02 35.3464 132.348 35.0895 132.765 34.9048C133.181 34.7202 133.655 34.6279 134.185 34.6279C134.725 34.6279 135.196 34.7202 135.599 34.9048C136.003 35.0895 136.318 35.3464 136.543 35.6754C136.768 36.0045 136.884 36.3857 136.891 36.8189H135.417ZM143.517 34.7273H145.055V39.4503C145.055 39.9806 144.928 40.4446 144.675 40.8423C144.424 41.2401 144.072 41.5502 143.62 41.7727C143.168 41.9929 142.641 42.103 142.04 42.103C141.436 42.103 140.908 41.9929 140.456 41.7727C140.004 41.5502 139.652 41.2401 139.401 40.8423C139.15 40.4446 139.025 39.9806 139.025 39.4503V34.7273H140.563V39.3189C140.563 39.5959 140.623 39.8421 140.744 40.0575C140.867 40.273 141.04 40.4423 141.262 40.5654C141.485 40.6885 141.744 40.75 142.04 40.75C142.338 40.75 142.597 40.6885 142.817 40.5654C143.04 40.4423 143.212 40.273 143.332 40.0575C143.456 39.8421 143.517 39.5959 143.517 39.3189V34.7273ZM147.32 42V34.7273H150.189C150.741 34.7273 151.211 34.8326 151.599 35.0433C151.987 35.2517 152.283 35.5417 152.487 35.9134C152.693 36.2827 152.796 36.7088 152.796 37.1918C152.796 37.6747 152.691 38.1009 152.483 38.4702C152.275 38.8395 151.973 39.1271 151.578 39.3331C151.185 39.5391 150.709 39.6421 150.15 39.6421H148.321V38.4098H149.901C150.197 38.4098 150.441 38.3589 150.633 38.2571C150.827 38.153 150.972 38.0097 151.066 37.8274C151.163 37.6428 151.212 37.4309 151.212 37.1918C151.212 36.9503 151.163 36.7396 151.066 36.5597C150.972 36.3774 150.827 36.2365 150.633 36.1371C150.439 36.0353 150.193 35.9844 149.894 35.9844H148.857V42H147.32ZM154.794 42V34.7273H157.664C158.215 34.7273 158.685 34.8326 159.074 35.0433C159.462 35.2517 159.758 35.5417 159.961 35.9134C160.167 36.2827 160.27 36.7088 160.27 37.1918C160.27 37.6747 160.166 38.1009 159.958 38.4702C159.749 38.8395 159.448 39.1271 159.052 39.3331C158.659 39.5391 158.183 39.6421 157.625 39.6421H155.796V38.4098H157.376C157.672 38.4098 157.916 38.3589 158.108 38.2571C158.302 38.153 158.446 38.0097 158.541 37.8274C158.638 37.6428 158.686 37.4309 158.686 37.1918C158.686 36.9503 158.638 36.7396 158.541 36.5597C158.446 36.3774 158.302 36.2365 158.108 36.1371C157.913 36.0353 157.667 35.9844 157.369 35.9844H156.332V42H154.794ZM168.952 38.3637C168.952 39.1567 168.802 39.8315 168.501 40.3878C168.203 40.9441 167.796 41.3691 167.28 41.6627C166.766 41.9539 166.188 42.0994 165.547 42.0994C164.9 42.0994 164.32 41.9527 163.807 41.6591C163.293 41.3655 162.887 40.9406 162.589 40.3842C162.29 39.8279 162.141 39.1544 162.141 38.3637C162.141 37.5706 162.29 36.8958 162.589 36.3395C162.887 35.7832 163.293 35.3594 163.807 35.0682C164.32 34.7746 164.9 34.6279 165.547 34.6279C166.188 34.6279 166.766 34.7746 167.28 35.0682C167.796 35.3594 168.203 35.7832 168.501 36.3395C168.802 36.8958 168.952 37.5706 168.952 38.3637ZM167.393 38.3637C167.393 37.8499 167.316 37.4167 167.162 37.0639C167.011 36.7112 166.797 36.4437 166.52 36.2614C166.243 36.0791 165.918 35.9879 165.547 35.9879C165.175 35.9879 164.851 36.0791 164.574 36.2614C164.297 36.4437 164.081 36.7112 163.927 37.0639C163.776 37.4167 163.7 37.8499 163.7 38.3637C163.7 38.8774 163.776 39.3106 163.927 39.6634C164.081 40.0161 164.297 40.2836 164.574 40.4659C164.851 40.6482 165.175 40.7394 165.547 40.7394C165.918 40.7394 166.243 40.6482 166.52 40.4659C166.797 40.2836 167.011 40.0161 167.162 39.6634C167.316 39.3106 167.393 38.8774 167.393 38.3637ZM171.091 42V34.7273H173.961C174.51 34.7273 174.979 34.8255 175.367 35.022C175.757 35.2162 176.055 35.492 176.258 35.8494C176.464 36.2046 176.567 36.6224 176.567 37.103C176.567 37.586 176.463 38.0014 176.255 38.3494C176.046 38.6951 175.744 38.9602 175.349 39.1449C174.956 39.3296 174.48 39.4219 173.922 39.4219H172V38.1861H173.673C173.967 38.1861 174.21 38.1458 174.404 38.0654C174.599 37.9849 174.743 37.8641 174.838 37.7031C174.935 37.5422 174.983 37.3421 174.983 37.103C174.983 36.8615 174.935 36.6579 174.838 36.4922C174.743 36.3265 174.597 36.201 174.401 36.1158C174.207 36.0282 173.962 35.9844 173.666 35.9844H172.629V42H171.091ZM175.019 38.6904L176.826 42H175.129L173.36 38.6904H175.019ZM178.377 35.995V34.7273H184.35V35.995H182.123V42H180.603V35.995H178.377Z" fill="#059669"/>
</svg>
