<svg width="20" height="18" viewBox="0 0 20 18" fill="none" xmlns="http://www.w3.org/2000/svg">
<path d="M0 18V16C0.633333 16 1.2 15.8792 1.7 15.6375C2.2 15.3958 2.74167 15.0583 3.325 14.625C3.825 15.0417 4.37083 15.3708 4.9625 15.6125C5.55417 15.8542 6.125 15.975 6.675 15.975C7.225 15.975 7.8 15.8583 8.4 15.625C9 15.3917 9.54167 15.0583 10.025 14.625C10.5583 15.0917 11.1083 15.4333 11.675 15.65C12.2417 15.8667 12.8083 15.975 13.375 15.975C13.925 15.975 14.4625 15.8667 14.9875 15.65C15.5125 15.4333 16.0917 15.0917 16.725 14.625C17.375 15.125 17.95 15.4792 18.45 15.6875C18.95 15.8958 19.4667 16 20 16V18C19.4167 18 18.8542 17.9208 18.3125 17.7625C17.7708 17.6042 17.2417 17.375 16.725 17.075C16.1917 17.4083 15.6375 17.6458 15.0625 17.7875C14.4875 17.9292 13.925 18 13.375 18C12.825 18 12.2625 17.9292 11.6875 17.7875C11.1125 17.6458 10.5583 17.4083 10.025 17.075C9.54167 17.3917 9.00833 17.625 8.425 17.775C7.84167 17.925 7.25833 18 6.675 18C6.10833 18 5.54167 17.925 4.975 17.775C4.40833 17.625 3.85833 17.3917 3.325 17.075C2.80833 17.375 2.27083 17.6042 1.7125 17.7625C1.15417 17.9208 0.583333 18 0 18ZM0 13.5V11.5C0 9.88333 0.3125 8.375 0.9375 6.975C1.5625 5.575 2.41667 4.35833 3.5 3.325C4.58333 2.29167 5.85417 1.47917 7.3125 0.8875C8.77083 0.295833 10.3333 0 12 0C12.55 0 13.0958 0.0291667 13.6375 0.0875C14.1792 0.145833 14.6667 0.225 15.1 0.325C14.75 0.858333 14.4792 1.42083 14.2875 2.0125C14.0958 2.60417 14 3.15833 14 3.675C14 4.59167 14.325 5.375 14.975 6.025C15.625 6.675 16.4083 7 17.325 7H20V9H17.325C15.8417 9 14.5833 8.48333 13.55 7.45C12.5167 6.41667 12 5.15833 12 3.675C12 3.44167 12.0167 3.19583 12.05 2.9375C12.0833 2.67917 12.1333 2.425 12.2 2.175C10.9667 2.475 9.95833 3.1125 9.175 4.0875C8.39167 5.0625 8 6.2 8 7.5C8 8.1 8.09583 8.67083 8.2875 9.2125C8.47917 9.75417 8.75 10.2667 9.1 10.75C9.23333 10.6667 9.375 10.5708 9.525 10.4625C9.675 10.3542 9.83333 10.2417 10 10.125C10.4833 10.5583 11.0417 10.8917 11.675 11.125C12.3083 11.3583 12.875 11.475 13.375 11.475C13.875 11.475 14.4333 11.3542 15.05 11.1125C15.6667 10.8708 16.225 10.5417 16.725 10.125C17.2583 10.525 17.7875 10.8542 18.3125 11.1125C18.8375 11.3708 19.4 11.5 20 11.5V13.5C19.4167 13.5 18.8542 13.4208 18.3125 13.2625C17.7708 13.1042 17.2417 12.875 16.725 12.575C16.1917 12.9083 15.65 13.1458 15.1 13.2875C14.55 13.4292 13.975 13.5 13.375 13.5C12.775 13.5 12.175 13.4167 11.575 13.25C10.975 13.0833 10.4583 12.8583 10.025 12.575C9.50833 12.8917 8.96667 13.1208 8.4 13.2625C7.83333 13.4042 7.25833 13.4833 6.675 13.5C6.09167 13.5167 5.51667 13.4417 4.95 13.275C4.38333 13.1083 3.84167 12.875 3.325 12.575C2.80833 12.875 2.27083 13.1042 1.7125 13.2625C1.15417 13.4208 0.583333 13.5 0 13.5ZM6.625 11.475C6.70833 11.475 6.79167 11.475 6.875 11.475C6.95833 11.475 7.04167 11.4667 7.125 11.45C6.75833 10.8667 6.47917 10.2417 6.2875 9.575C6.09583 8.90833 6 8.21667 6 7.5C6 6.15 6.30833 4.92917 6.925 3.8375C7.54167 2.74583 8.4 1.85 9.5 1.15V2.25C8.46667 2.51667 7.5125 2.92083 6.6375 3.4625C5.7625 4.00417 4.99583 4.65833 4.3375 5.425C3.67917 6.19167 3.15 7.04583 2.75 7.9875C2.35 8.92917 2.10833 9.93333 2.025 11C2.275 10.85 2.49167 10.7167 2.675 10.6C2.85833 10.4833 3.075 10.325 3.325 10.125C3.94167 10.575 4.5 10.9125 5 11.1375C5.5 11.3625 6.04167 11.475 6.625 11.475Z" fill="#B45309"/>
</svg>
